Bold
<glyph name="quotesingle" format="2">
  <advance width="367"/>
  <unicode hex="0027"/>
  <outline>
    <contour>
      <point x="82" y="1526" type="line"/>
      <point x="82" y="1210" type="line"/>
      <point x="117" y="995" type="line"/>
      <point x="250" y="995" type="line"/>
      <point x="285" y="1217" type="line"/>
      <point x="285" y="1526" type="line"/>
    </contour>
  </outline>
</glyph>
<glyph name="plus" format="2">
  <advance width="1083"/>
  <unicode hex="002B"/>
  <note>
uni002B
</note>
  <outline>
    <contour>
      <point x="682" y="1153" type="line"/>
      <point x="403" y="1153" type="line"/>
      <point x="403" y="817" type="line"/>
      <point x="102" y="817" type="line"/>
      <point x="102" y="563" type="line"/>
      <point x="403" y="563" type="line"/>
      <point x="403" y="219" type="line"/>
      <point x="682" y="219" type="line"/>
      <point x="682" y="563" type="line"/>
      <point x="981" y="563" type="line"/>
      <point x="981" y="817" type="line"/>
      <point x="682" y="817" type="line"/>
    </contour>
  </outline>
</glyph>
<glyph name="hyphen" format="2">
  <advance width="973"/>
  <unicode hex="002D"/>
  <outline>
    <contour>
      <point x="123" y="643" type="line"/>
      <point x="123" y="426" type="line"/>
      <point x="850" y="426" type="line"/>
      <point x="850" y="643" type="line"/>
    </contour>
  </outline>
</glyph>
<glyph name="two" format="2">
  <advance width="1126"/>
  <unicode hex="0032"/>
  <note>
uni0032
</note>
  <outline>
    <contour>
      <point x="1070" y="252" type="line"/>
      <point x="514" y="252" type="line"/>
      <point x="696" y="462" type="line" smooth="yes"/>
      <point x="847" y="636"/>
      <point x="1034" y="800"/>
      <point x="1034" y="1023" type="curve" smooth="yes"/>
      <point x="1034" y="1284"/>
      <point x="866" y="1430"/>
      <point x="559" y="1430" type="curve" smooth="yes"/>
      <point x="370" y="1430"/>
      <point x="209" y="1344"/>
      <point x="122" y="1197" type="curve" smooth="yes"/>
      <point x="78" y="1123"/>
      <point x="56" y="1043"/>
      <point x="56" y="957" type="curve"/>
      <point x="383" y="957" type="line"/>
      <point x="383" y="1084"/>
      <point x="452" y="1178"/>
      <point x="552" y="1178" type="curve" smooth="yes"/>
      <point x="652" y="1178"/>
      <point x="707" y="1114"/>
      <point x="707" y="993" type="curve" smooth="yes"/>
      <point x="707" y="918"/>
      <point x="656" y="813"/>
      <point x="539" y="690" type="curve" smooth="yes"/>
      <point x="86" y="215" type="line"/>
      <point x="86" y="0" type="line"/>
      <point x="1070" y="0" type="line"/>
    </contour>
  </outline>
</glyph>
<glyph name="eight" format="2">
  <advance width="1100"/>
  <unicode hex="0038"/>
  <note>
uni0038
</note>
  <outline>
    <contour>
      <point x="1013" y="1007" type="curve" smooth="yes"/>
      <point x="1013" y="1252"/>
      <point x="833" y="1406"/>
      <point x="549" y="1406" type="curve" smooth="yes"/>
      <point x="266" y="1406"/>
      <point x="87" y="1252"/>
      <point x="87" y="1007" type="curve" smooth="yes"/>
      <point x="87" y="871"/>
      <point x="160" y="764"/>
      <point x="281" y="701" type="curve"/>
      <point x="140" y="634"/>
      <point x="57" y="512"/>
      <point x="57" y="363" type="curve" smooth="yes"/>
      <point x="57" y="114"/>
      <point x="246" y="-45"/>
      <point x="553" y="-45" type="curve" smooth="yes"/>
      <point x="857" y="-45"/>
      <point x="1042" y="111"/>
      <point x="1042" y="363" type="curve" smooth="yes"/>
      <point x="1042" y="519"/>
      <point x="956" y="634"/>
      <point x="824" y="701" type="curve"/>
      <point x="941" y="764"/>
      <point x="1013" y="871"/>
    </contour>
    <contour>
      <point x="715" y="389" type="curve" smooth="yes"/>
      <point x="715" y="276"/>
      <point x="649" y="207"/>
      <point x="553" y="207" type="curve" smooth="yes"/>
      <point x="454" y="207"/>
      <point x="386" y="276"/>
      <point x="386" y="389" type="curve" smooth="yes"/>
      <point x="386" y="504"/>
      <point x="451" y="570"/>
      <point x="551" y="570" type="curve" smooth="yes"/>
      <point x="650" y="570"/>
      <point x="715" y="504"/>
    </contour>
    <contour>
      <point x="549" y="1154" type="curve" smooth="yes"/>
      <point x="641" y="1154"/>
      <point x="686" y="1091"/>
      <point x="686" y="990" type="curve" smooth="yes"/>
      <point x="686" y="889"/>
      <point x="640" y="823"/>
      <point x="553" y="823" type="curve" smooth="yes"/>
      <point x="464" y="823"/>
      <point x="416" y="888"/>
      <point x="416" y="991" type="curve" smooth="yes"/>
      <point x="416" y="1094"/>
      <point x="461" y="1154"/>
    </contour>
  </outline>
</glyph>
<glyph name="nine" format="2">
  <advance width="1100"/>
  <unicode hex="0039"/>
  <note>
uni0039
</note>
  <outline>
    <contour>
      <point x="711" y="520" type="curve"/>
      <point x="688" y="342"/>
      <point x="619" y="231"/>
      <point x="274" y="217" type="curve"/>
      <point x="274" y="-45" type="line"/>
      <point x="774" y="-45"/>
      <point x="1042" y="259"/>
      <point x="1042" y="716" type="curve" smooth="yes"/>
      <point x="1042" y="840" type="line" smooth="yes"/>
      <point x="1038" y="1169"/>
      <point x="843" y="1406"/>
      <point x="549" y="1406" type="curve" smooth="yes"/>
      <point x="263" y="1406"/>
      <point x="57" y="1177"/>
      <point x="57" y="901" type="curve" smooth="yes"/>
      <point x="57" y="613"/>
      <point x="219" y="426"/>
      <point x="474" y="426" type="curve" smooth="yes"/>
      <point x="561" y="426"/>
      <point x="640" y="457"/>
    </contour>
    <contour>
      <point x="562" y="660" type="curve" smooth="yes"/>
      <point x="451" y="660"/>
      <point x="384" y="754"/>
      <point x="384" y="901" type="curve" smooth="yes"/>
      <point x="384" y="1042"/>
      <point x="456" y="1154"/>
      <point x="547" y="1154" type="curve" smooth="yes"/>
      <point x="651" y="1154"/>
      <point x="715" y="1068"/>
      <point x="715" y="888" type="curve" smooth="yes"/>
      <point x="715" y="752" type="line"/>
      <point x="684" y="691"/>
      <point x="633" y="660"/>
    </contour>
  </outline>
</glyph>
<glyph name="at" format="2">
  <advance width="1692"/>
  <unicode hex="0040"/>
  <note>
uni0040
</note>
  <outline>
    <contour>
      <point x="1589" y="487" type="curve" smooth="yes"/>
      <point x="1608" y="944"/>
      <point x="1350" y="1245"/>
      <point x="893" y="1245" type="curve" smooth="yes"/>
      <point x="440" y="1245"/>
      <point x="125" y="905"/>
      <point x="102" y="408" type="curve" smooth="yes"/>
      <point x="87" y="-103"/>
      <point x="334" y="-395"/>
      <point x="829" y="-395" type="curve" smooth="yes"/>
      <point x="950" y="-395"/>
      <point x="1085" y="-365"/>
      <point x="1157" y="-317" type="curve"/>
      <point x="1124" y="-170" type="line"/>
      <point x="1055" y="-201"/>
      <point x="932" y="-227"/>
      <point x="834" y="-227" type="curve" smooth="yes"/>
      <point x="467" y="-227"/>
      <point x="279" y="-4"/>
      <point x="297" y="408" type="curve" smooth="yes"/>
      <point x="314" y="778"/>
      <point x="521" y="1094"/>
      <point x="889" y="1094" type="curve" smooth="yes"/>
      <point x="1241" y="1094"/>
      <point x="1432" y="870"/>
      <point x="1411" y="479" type="curve" smooth="yes"/>
      <point x="1405" y="281"/>
      <point x="1331" y="139"/>
      <point x="1231" y="139" type="curve" smooth="yes"/>
      <point x="1163" y="139"/>
      <point x="1137" y="180"/>
      <point x="1147" y="262" type="curve"/>
      <point x="1192" y="778" type="line"/>
      <point x="1076" y="854"/>
      <point x="1029" y="874"/>
      <point x="913" y="874" type="curve" smooth="yes"/>
      <point x="690" y="874"/>
      <point x="524" y="682"/>
      <point x="487" y="387" type="curve" smooth="yes"/>
      <point x="468" y="176"/>
      <point x="559" y="-12"/>
      <point x="748" y="-12" type="curve" smooth="yes"/>
      <point x="844" y="-12"/>
      <point x="922" y="27"/>
      <point x="979" y="104" type="curve"/>
      <point x="1020" y="29"/>
      <point x="1096" y="-14"/>
      <point x="1192" y="-14" type="curve" smooth="yes"/>
      <point x="1427" y="-14"/>
      <point x="1577" y="182"/>
    </contour>
    <contour>
      <point x="709" y="387" type="curve" smooth="yes"/>
      <point x="731" y="608"/>
      <point x="799" y="707"/>
      <point x="930" y="707" type="curve" smooth="yes"/>
      <point x="948" y="707"/>
      <point x="967" y="705"/>
      <point x="985" y="700" type="curve"/>
      <point x="950" y="299" type="line"/>
      <point x="920" y="207"/>
      <point x="870" y="156"/>
      <point x="815" y="156" type="curve" smooth="yes"/>
      <point x="733" y="156"/>
      <point x="696" y="236"/>
    </contour>
  </outline>
</glyph>
<glyph name="L" format="2">
  <advance width="1069"/>
  <unicode hex="004C"/>
  <note>
uni004C
</note>
  <outline>
    <contour>
      <point x="444" y="1404" type="line"/>
      <point x="106" y="1404" type="line"/>
      <point x="106" y="0" type="line"/>
      <point x="1032" y="0" type="line"/>
      <point x="1032" y="260" type="line"/>
      <point x="444" y="260" type="line"/>
    </contour>
  </outline>
</glyph>
<glyph name="P" format="2">
  <advance width="1283"/>
  <unicode hex="0050"/>
  <note>
uni0050
</note>
  <outline>
    <contour>
      <point x="658" y="477" type="line"/>
      <point x="1003" y="477"/>
      <point x="1209" y="652"/>
      <point x="1209" y="926" type="curve" smooth="yes"/>
      <point x="1209" y="1201"/>
      <point x="999" y="1404"/>
      <point x="665" y="1404" type="curve" smooth="yes"/>
      <point x="106" y="1404" type="line"/>
      <point x="106" y="0" type="line"/>
      <point x="444" y="0" type="line"/>
      <point x="444" y="477" type="line"/>
    </contour>
    <contour>
      <point x="444" y="1140" type="line"/>
      <point x="669" y="1140" type="line" smooth="yes"/>
      <point x="789" y="1140"/>
      <point x="865" y="1056"/>
      <point x="865" y="924" type="curve" smooth="yes"/>
      <point x="865" y="803"/>
      <point x="797" y="737"/>
      <point x="665" y="737" type="curve" smooth="yes"/>
      <point x="444" y="737" type="line"/>
    </contour>
  </outline>
</glyph>
<glyph name="R" format="2">
  <advance width="1286"/>
  <unicode hex="0052"/>
  <note>
uni0052
</note>
  <outline>
    <contour>
      <point x="873" y="0" type="line"/>
      <point x="1236" y="0" type="line"/>
      <point x="1236" y="13" type="line"/>
      <point x="944" y="579" type="line"/>
      <point x="1109" y="660"/>
      <point x="1187" y="782"/>
      <point x="1187" y="978" type="curve" smooth="yes"/>
      <point x="1187" y="1249"/>
      <point x="989" y="1404"/>
      <point x="656" y="1404" type="curve" smooth="yes"/>
      <point x="106" y="1404" type="line"/>
      <point x="106" y="0" type="line"/>
      <point x="443" y="0" type="line"/>
      <point x="443" y="494" type="line"/>
      <point x="626" y="494" type="line"/>
    </contour>
    <contour>
      <point x="443" y="1140" type="line"/>
      <point x="656" y="1140" type="line" smooth="yes"/>
      <point x="784" y="1140"/>
      <point x="851" y="1066"/>
      <point x="851" y="947" type="curve" smooth="yes"/>
      <point x="851" y="828"/>
      <point x="788" y="757"/>
      <point x="656" y="757" type="curve" smooth="yes"/>
      <point x="443" y="757" type="line"/>
    </contour>
  </outline>
</glyph>
<glyph name="S" format="2">
  <advance width="1234"/>
  <unicode hex="0053"/>
  <note>
uni0053
</note>
  <outline>
    <contour>
      <point x="830" y="347" type="curve" smooth="yes"/>
      <point x="830" y="260"/>
      <point x="758" y="209"/>
      <point x="647" y="209" type="curve" smooth="yes"/>
      <point x="473" y="209"/>
      <point x="402" y="277"/>
      <point x="402" y="430" type="curve"/>
      <point x="62" y="430" type="line"/>
      <point x="62" y="244"/>
      <point x="155" y="99"/>
      <point x="340" y="17" type="curve" smooth="yes"/>
      <point x="432" y="-24"/>
      <point x="535" y="-45"/>
      <point x="647" y="-45" type="curve" smooth="yes"/>
      <point x="971" y="-45"/>
      <point x="1167" y="103"/>
      <point x="1167" y="349" type="curve" smooth="yes"/>
      <point x="1167" y="503"/>
      <point x="1092" y="624"/>
      <point x="941" y="712" type="curve" smooth="yes"/>
      <point x="798" y="792"/>
      <point x="593" y="829"/>
      <point x="497" y="902" type="curve" smooth="yes"/>
      <point x="459" y="932"/>
      <point x="440" y="964"/>
      <point x="440" y="998" type="curve" smooth="yes"/>
      <point x="440" y="1082"/>
      <point x="513" y="1140"/>
      <point x="636" y="1140" type="curve" smooth="yes"/>
      <point x="756" y="1140"/>
      <point x="830" y="1076"/>
      <point x="830" y="961" type="curve"/>
      <point x="1167" y="961" type="line"/>
      <point x="1167" y="1212"/>
      <point x="957" y="1397"/>
      <point x="643" y="1397" type="curve" smooth="yes"/>
      <point x="328" y="1397"/>
      <point x="105" y="1241"/>
      <point x="105" y="1002" type="curve" smooth="yes"/>
      <point x="105" y="846"/>
      <point x="195" y="724"/>
      <point x="377" y="636" type="curve" smooth="yes"/>
      <point x="511" y="567"/>
      <point x="695" y="527"/>
      <point x="777" y="463" type="curve" smooth="yes"/>
      <point x="812" y="436"/>
      <point x="830" y="396"/>
    </contour>
  </outline>
</glyph>
<glyph name="V" format="2">
  <advance width="1302"/>
  <unicode hex="0056"/>
  <note>
uni0056
</note>
  <outline>
    <contour>
      <point x="371" y="1404" type="line"/>
      <point x="-3" y="1404" type="line"/>
      <point x="465" y="0" type="line"/>
      <point x="835" y="0" type="line"/>
      <point x="1306" y="1404" type="line"/>
      <point x="929" y="1404" type="line"/>
      <point x="650" y="381" type="line"/>
    </contour>
  </outline>
</glyph>
<glyph name="Z" format="2">
  <advance width="1202"/>
  <unicode hex="005A"/>
  <note>
uni005A
</note>
  <outline>
    <contour>
      <point x="1150" y="1228" type="line"/>
      <point x="1150" y="1404" type="line"/>
      <point x="60" y="1404" type="line"/>
      <point x="60" y="1140" type="line"/>
      <point x="731" y="1140" type="line"/>
      <point x="65" y="178" type="line"/>
      <point x="65" y="0" type="line"/>
      <point x="1155" y="0" type="line"/>
      <point x="1155" y="260" type="line"/>
      <point x="486" y="260" type="line"/>
    </contour>
  </outline>
</glyph>
<glyph name="bracketleft" format="2">
  <advance width="808"/>
  <unicode hex="005B"/>
  <outline>
    <contour>
      <point x="708" y="1839" type="line"/>
      <point x="100" y="1839" type="line"/>
      <point x="100" y="-227" type="line"/>
      <point x="708" y="-227" type="line"/>
      <point x="708" y="-135" type="line"/>
      <point x="378" y="-49" type="line"/>
      <point x="378" y="1677" type="line"/>
      <point x="708" y="1751" type="line"/>
    </contour>
  </outline>
</glyph>
<glyph name="a" format="2">
  <advance width="1047"/>
  <unicode hex="0061"/>
  <note>
uni0061
</note>
  <outline>
    <contour>
      <point x="1003" y="-25" type="line"/>
      <point x="1003" y="-9" type="line"/>
      <point x="974" y="41"/>
      <point x="960" y="114"/>
      <point x="958" y="212" type="curve" smooth="yes"/>
      <point x="958" y="671" type="line" smooth="yes"/>
      <point x="955" y="900"/>
      <point x="793" y="1034"/>
      <point x="525" y="1034" type="curve" smooth="yes"/>
      <point x="258" y="1034"/>
      <point x="68" y="898"/>
      <point x="68" y="696" type="curve"/>
      <point x="392" y="696" type="line"/>
      <point x="392" y="771"/>
      <point x="431" y="809"/>
      <point x="508" y="809" type="curve" smooth="yes"/>
      <point x="591" y="809"/>
      <point x="633" y="761"/>
      <point x="633" y="667" type="curve" smooth="yes"/>
      <point x="633" y="611" type="line"/>
      <point x="532" y="611" type="line" smooth="yes"/>
      <point x="214" y="611"/>
      <point x="43" y="494"/>
      <point x="43" y="268" type="curve" smooth="yes"/>
      <point x="43" y="88"/>
      <point x="202" y="-45"/>
      <point x="397" y="-45" type="curve" smooth="yes"/>
      <point x="503" y="-45"/>
      <point x="587" y="-8"/>
      <point x="647" y="67" type="curve"/>
      <point x="656" y="28"/>
      <point x="667" y="-3"/>
      <point x="678" y="-25" type="curve"/>
    </contour>
    <contour>
      <point x="476" y="185" type="curve" smooth="yes"/>
      <point x="413" y="185"/>
      <point x="370" y="226"/>
      <point x="370" y="286" type="curve" smooth="yes"/>
      <point x="370" y="387"/>
      <point x="425" y="437"/>
      <point x="536" y="437" type="curve" smooth="yes"/>
      <point x="633" y="437" type="line"/>
      <point x="633" y="271" type="line"/>
      <point x="610" y="229"/>
      <point x="554" y="185"/>
    </contour>
  </outline>
</glyph>
<glyph name="d" format="2">
  <advance width="1108"/>
  <unicode hex="0064"/>
  <note>
uni0064
</note>
  <outline>
    <contour>
      <point x="50" y="505" type="curve" smooth="yes"/>
      <point x="50" y="153"/>
      <point x="204" y="-45"/>
      <point x="454" y="-45" type="curve" smooth="yes"/>
      <point x="555" y="-45"/>
      <point x="640" y="-1"/>
      <point x="708" y="86" type="curve"/>
      <point x="723" y="-25" type="line"/>
      <point x="1014" y="-25" type="line"/>
      <point x="1014" y="1453" type="line"/>
      <point x="690" y="1453" type="line"/>
      <point x="690" y="926" type="line"/>
      <point x="627" y="998"/>
      <point x="549" y="1034"/>
      <point x="456" y="1034" type="curve" smooth="yes"/>
      <point x="200" y="1034"/>
      <point x="50" y="832"/>
    </contour>
    <contour>
      <point x="377" y="543" type="curve" smooth="yes"/>
      <point x="381" y="704"/>
      <point x="439" y="784"/>
      <point x="539" y="784" type="curve" smooth="yes"/>
      <point x="610" y="784"/>
      <point x="660" y="754"/>
      <point x="690" y="694" type="curve"/>
      <point x="690" y="297" type="line"/>
      <point x="660" y="235"/>
      <point x="609" y="205"/>
      <point x="536" y="205" type="curve" smooth="yes"/>
      <point x="410" y="205"/>
      <point x="371" y="305"/>
    </contour>
  </outline>
</glyph>
<glyph name="e" format="2">
  <advance width="1074"/>
  <unicode hex="0065"/>
  <note>
uni0065
</note>
  <outline>
    <contour>
      <point x="594" y="-45" type="curve" smooth="yes"/>
      <point x="766" y="-45"/>
      <point x="927" y="26"/>
      <point x="1005" y="138" type="curve"/>
      <point x="858" y="314" type="line"/>
      <point x="800" y="241"/>
      <point x="720" y="205"/>
      <point x="617" y="205" type="curve" smooth="yes"/>
      <point x="491" y="205"/>
      <point x="411" y="275"/>
      <point x="390" y="392" type="curve"/>
      <point x="1034" y="392" type="line"/>
      <point x="1034" y="520" type="line" smooth="yes"/>
      <point x="1034" y="845"/>
      <point x="852" y="1034"/>
      <point x="561" y="1034" type="curve" smooth="yes"/>
      <point x="239" y="1034"/>
      <point x="59" y="816"/>
      <point x="59" y="498" type="curve" smooth="yes"/>
      <point x="59" y="471" type="line" smooth="yes"/>
      <point x="59" y="165"/>
      <point x="276" y="-45"/>
    </contour>
    <contour>
      <point x="559" y="784" type="curve" smooth="yes"/>
      <point x="660" y="784"/>
      <point x="720" y="724"/>
      <point x="716" y="622" type="curve" smooth="yes"/>
      <point x="716" y="595" type="line"/>
      <point x="390" y="595" type="line"/>
      <point x="407" y="721"/>
      <point x="465" y="784"/>
    </contour>
  </outline>
</glyph>
<glyph name="g" format="2">
  <advance width="1136"/>
  <unicode hex="0067"/>
  <note>
uni0067
</note>
  <outline>
    <contour>
      <point x="53" y="516" type="curve" smooth="yes"/>
      <point x="53" y="124"/>
      <point x="262" y="-34"/>
      <point x="479" y="-34" type="curve" smooth="yes"/>
      <point x="573" y="-34"/>
      <point x="653" y="0"/>
      <point x="715" y="69" type="curve"/>
      <point x="715" y="39" type="line" smooth="yes"/>
      <point x="715" y="-108"/>
      <point x="643" y="-183"/>
      <point x="499" y="-183" type="curve" smooth="yes"/>
      <point x="400" y="-183"/>
      <point x="321" y="-148"/>
      <point x="260" y="-79" type="curve"/>
      <point x="122" y="-268" type="line"/>
      <point x="202" y="-361"/>
      <point x="359" y="-423"/>
      <point x="511" y="-423" type="curve" smooth="yes"/>
      <point x="842" y="-423"/>
      <point x="1042" y="-241"/>
      <point x="1042" y="25" type="curve" smooth="yes"/>
      <point x="1042" y="1027" type="line"/>
      <point x="747" y="1027" type="line"/>
      <point x="735" y="937" type="line"/>
      <point x="675" y="1012"/>
      <point x="589" y="1047"/>
      <point x="481" y="1047" type="curve" smooth="yes"/>
      <point x="227" y="1047"/>
      <point x="53" y="849"/>
    </contour>
    <contour>
      <point x="380" y="489" type="curve" smooth="yes"/>
      <point x="380" y="687"/>
      <point x="448" y="794"/>
      <point x="562" y="794" type="curve" smooth="yes"/>
      <point x="633" y="794"/>
      <point x="683" y="770"/>
      <point x="715" y="723" type="curve"/>
      <point x="715" y="285" type="line"/>
      <point x="682" y="236"/>
      <point x="631" y="212"/>
      <point x="560" y="212" type="curve" smooth="yes"/>
      <point x="446" y="212"/>
      <point x="380" y="321"/>
    </contour>
  </outline>
</glyph>
<glyph name="j" format="2">
  <advance width="534"/>
  <unicode hex="006A"/>
  <note>
uni006A
</note>
  <outline>
    <contour>
      <point x="116" y="1035" type="line"/>
      <point x="116" y="-40" type="line" smooth="yes"/>
      <point x="116" y="-129"/>
      <point x="71" y="-173"/>
      <point x="-19" y="-173" type="curve" smooth="yes"/>
      <point x="-43" y="-173"/>
      <point x="-74" y="-171"/>
      <point x="-112" y="-166" type="curve"/>
      <point x="-112" y="-412" type="line"/>
      <point x="-63" y="-423"/>
      <point x="-13" y="-427"/>
      <point x="41" y="-427" type="curve" smooth="yes"/>
      <point x="294" y="-427"/>
      <point x="438" y="-289"/>
      <point x="438" y="-42" type="curve" smooth="yes"/>
      <point x="438" y="1035" type="line"/>
    </contour>
    <contour>
      <point x="91" y="1302" type="curve" smooth="yes"/>
      <point x="91" y="1213"/>
      <point x="163" y="1147"/>
      <point x="270" y="1147" type="curve" smooth="yes"/>
      <point x="377" y="1147"/>
      <point x="452" y="1212"/>
      <point x="452" y="1304" type="curve" smooth="yes"/>
      <point x="452" y="1396"/>
      <point x="377" y="1460"/>
      <point x="270" y="1460" type="curve" smooth="yes"/>
      <point x="163" y="1460"/>
      <point x="91" y="1396"/>
    </contour>
  </outline>
</glyph>
<glyph name="l" format="2">
  <advance width="544"/>
  <unicode hex="006C"/>
  <note>
uni006C
</note>
  <outline>
    <contour>
      <point x="435" y="1477" type="line"/>
      <point x="108" y="1477" type="line"/>
      <point x="108" y="0" type="line"/>
      <point x="435" y="0" type="line"/>
    </contour>
  </outline>
</glyph>
<glyph name="m" format="2">
  <advance width="1700"/>
  <unicode hex="006D"/>
  <note>
uni006D
</note>
  <outline>
    <contour>
      <point x="94" y="1041" type="line"/>
      <point x="94" y="0" type="line"/>
      <point x="419" y="0" type="line"/>
      <point x="419" y="725" type="line"/>
      <point x="452" y="782"/>
      <point x="499" y="811"/>
      <point x="561" y="811" type="curve" smooth="yes"/>
      <point x="660" y="811"/>
      <point x="687" y="767"/>
      <point x="687" y="656" type="curve" smooth="yes"/>
      <point x="687" y="0" type="line"/>
      <point x="1011" y="0" type="line"/>
      <point x="1011" y="725" type="line"/>
      <point x="1041" y="782"/>
      <point x="1089" y="811"/>
      <point x="1156" y="811" type="curve" smooth="yes"/>
      <point x="1248" y="811"/>
      <point x="1279" y="766"/>
      <point x="1279" y="658" type="curve" smooth="yes"/>
      <point x="1279" y="0" type="line"/>
      <point x="1606" y="0" type="line"/>
      <point x="1606" y="678" type="line" smooth="yes"/>
      <point x="1600" y="934"/>
      <point x="1491" y="1062"/>
      <point x="1279" y="1062" type="curve" smooth="yes"/>
      <point x="1146" y="1062"/>
      <point x="1044" y="1009"/>
      <point x="973" y="903" type="curve"/>
      <point x="928" y="1009"/>
      <point x="839" y="1062"/>
      <point x="707" y="1062" type="curve" smooth="yes"/>
      <point x="583" y="1062"/>
      <point x="484" y="1014"/>
      <point x="410" y="920" type="curve"/>
      <point x="398" y="1041" type="line"/>
    </contour>
  </outline>
</glyph>
<glyph name="q" format="2">
  <advance width="1107"/>
  <unicode hex="0071"/>
  <note>
uni0071
</note>
  <outline>
    <contour>
      <point x="50" y="516" type="curve" smooth="yes"/>
      <point x="50" y="165"/>
      <point x="208" y="-36"/>
      <point x="454" y="-36" type="curve" smooth="yes"/>
      <point x="551" y="-36"/>
      <point x="629" y="0"/>
      <point x="690" y="69" type="curve"/>
      <point x="690" y="-417" type="line"/>
      <point x="1014" y="-417" type="line"/>
      <point x="1014" y="1027" type="line"/>
      <point x="736" y="1027" type="line"/>
      <point x="712" y="912" type="line"/>
      <point x="648" y="1002"/>
      <point x="562" y="1045"/>
      <point x="456" y="1045" type="curve" smooth="yes"/>
      <point x="201" y="1045"/>
      <point x="50" y="847"/>
    </contour>
    <contour>
      <point x="375" y="496" type="curve" smooth="yes"/>
      <point x="384" y="692"/>
      <point x="415" y="795"/>
      <point x="539" y="795" type="curve" smooth="yes"/>
      <point x="613" y="795"/>
      <point x="663" y="768"/>
      <point x="690" y="712" type="curve"/>
      <point x="690" y="299" type="line"/>
      <point x="661" y="243"/>
      <point x="611" y="215"/>
      <point x="536" y="215" type="curve" smooth="yes"/>
      <point x="429" y="215"/>
      <point x="375" y="309"/>
    </contour>
  </outline>
</glyph>
<glyph name="w" format="2">
  <advance width="1431"/>
  <unicode hex="0077"/>
  <note>
uni0077
</note>
  <outline>
    <contour>
      <point x="827" y="1041" type="line"/>
      <point x="600" y="1041" type="line"/>
      <point x="436" y="413" type="line"/>
      <point x="332" y="1041" type="line"/>
      <point x="21" y="1041" type="line"/>
      <point x="266" y="0" type="line"/>
      <point x="541" y="0" type="line"/>
      <point x="715" y="619" type="line"/>
      <point x="886" y="0" type="line"/>
      <point x="1161" y="0" type="line"/>
      <point x="1406" y="1041" type="line"/>
      <point x="1096" y="1041" type="line"/>
      <point x="990" y="428" type="line"/>
    </contour>
  </outline>
</glyph>
<glyph name="bar" format="2">
  <advance width="428"/>
  <unicode hex="007C"/>
  <outline>
    <contour>
      <point x="326" y="-125" type="line"/>
      <point x="326" y="1473" type="line"/>
      <point x="102" y="1473" type="line"/>
      <point x="102" y="-125" type="line"/>
    </contour>
  </outline>
</glyph>
<glyph name="asciitilde" format="2">
  <advance width="1176"/>
  <unicode hex="007E"/>
  <note>
uni007E
</note>
  <outline>
    <contour>
      <point x="862" y="641" type="line"/>
      <point x="862" y="555"/>
      <point x="819" y="489"/>
      <point x="760" y="489" type="curve" smooth="yes"/>
      <point x="723" y="489"/>
      <point x="682" y="512"/>
      <point x="639" y="555" type="curve" smooth="yes"/>
      <point x="551" y="643"/>
      <point x="483" y="674"/>
      <point x="395" y="674" type="curve" smooth="yes"/>
      <point x="215" y="674"/>
      <point x="102" y="526"/>
      <point x="102" y="297" type="curve"/>
      <point x="311" y="293" type="line"/>
      <point x="311" y="379"/>
      <point x="356" y="444"/>
      <point x="416" y="444" type="curve" smooth="yes"/>
      <point x="453" y="444"/>
      <point x="496" y="422"/>
      <point x="539" y="377" type="curve" smooth="yes"/>
      <point x="629" y="289"/>
      <point x="692" y="260"/>
      <point x="780" y="260" type="curve" smooth="yes"/>
      <point x="956" y="260"/>
      <point x="1073" y="410"/>
      <point x="1073" y="641" type="curve"/>
    </contour>
  </outline>
</glyph>
<glyph name="cent" format="2">
  <advance width="922"/>
  <unicode hex="00A2"/>
  <note>
uni00A2
</note>
  <outline>
    <contour>
      <point x="473" y="647" type="curve" smooth="yes"/>
      <point x="391.667" y="647"/>
      <point x="354" y="700.667"/>
      <point x="354" y="862" type="curve" smooth="yes"/>
      <point x="354" y="908.667"/>
      <point x="355.333" y="945"/>
      <point x="358" y="971" type="curve" smooth="yes"/>
      <point x="369.333" y="1053"/>
      <point x="407.667" y="1094"/>
      <point x="473" y="1094" type="curve" smooth="yes"/>
      <point x="541" y="1094"/>
      <point x="584" y="1046.333"/>
      <point x="584" y="965" type="curve"/>
      <point x="819" y="965" type="line"/>
      <point x="819" y="1137"/>
      <point x="720.333" y="1253.333"/>
      <point x="559" y="1280" type="curve"/>
      <point x="559" y="1448" type="line"/>
      <point x="410" y="1448" type="line"/>
      <point x="410" y="1282" type="line"/>
      <point x="215.333" y="1255.333"/>
      <point x="102" y="1099"/>
      <point x="102" y="879" type="curve" smooth="yes"/>
      <point x="102" y="864" type="line" smooth="yes"/>
      <point x="102" y="634.667"/>
      <point x="218" y="485.667"/>
      <point x="410" y="459" type="curve"/>
      <point x="410" y="287" type="line"/>
      <point x="559" y="287" type="line"/>
      <point x="559" y="461" type="line"/>
      <point x="715" y="487.667"/>
      <point x="819" y="602.667"/>
      <point x="819" y="756" type="curve"/>
      <point x="584" y="756" type="line"/>
      <point x="584" y="688"/>
      <point x="543.667" y="647"/>
    </contour>
  </outline>
</glyph>
<glyph name="ordfeminine" format="2">
  <advance width="869"/>
  <unicode hex="00AA"/>
  <note>
uni00AA
</note>
  <outline>
    <contour>
      <point x="747" y="1570" type="line"/>
      <point x="731" y="1623"/>
      <point x="723" y="1680"/>
      <point x="723" y="1741" type="curve" smooth="yes"/>
      <point x="723" y="2046" type="line" smooth="yes"/>
      <point x="723" y="2217"/>
      <point x="617" y="2313"/>
      <point x="444" y="2313" type="curve" smooth="yes"/>
      <point x="266" y="2313"/>
      <point x="143" y="2221"/>
      <point x="143" y="2088" type="curve"/>
      <point x="310" y="2075" type="line"/>
      <point x="310" y="2138"/>
      <point x="359" y="2169"/>
      <point x="444" y="2169" type="curve" smooth="yes"/>
      <point x="517" y="2169"/>
      <point x="554" y="2129"/>
      <point x="554" y="2048" type="curve" smooth="yes"/>
      <point x="554" y="1999" type="line"/>
      <point x="457" y="1999" type="line" smooth="yes"/>
      <point x="235" y="1999"/>
      <point x="128" y="1920"/>
      <point x="128" y="1775" type="curve" smooth="yes"/>
      <point x="128" y="1643"/>
      <point x="216" y="1557"/>
      <point x="369" y="1557" type="curve" smooth="yes"/>
      <point x="448" y="1557"/>
      <point x="512" y="1583"/>
      <point x="560" y="1636" type="curve"/>
      <point x="565" y="1608"/>
      <point x="570" y="1586"/>
      <point x="576" y="1570" type="curve"/>
    </contour>
    <contour>
      <point x="409" y="1696" type="curve" smooth="yes"/>
      <point x="335" y="1696"/>
      <point x="297" y="1724"/>
      <point x="297" y="1780" type="curve" smooth="yes"/>
      <point x="297" y="1846"/>
      <point x="356" y="1884"/>
      <point x="452" y="1888" type="curve" smooth="yes"/>
      <point x="554" y="1888" type="line"/>
      <point x="554" y="1755" type="line"/>
      <point x="521" y="1722"/>
      <point x="460" y="1696"/>
    </contour>
  </outline>
</glyph>
<glyph name="registered" format="2">
  <advance width="1350"/>
  <unicode hex="00AE"/>
  <note>
uni00AE
</note>
  <outline>
    <contour>
      <point x="102" y="1317" type="curve" smooth="yes"/>
      <point x="102" y="986"/>
      <point x="351" y="713"/>
      <point x="674" y="713" type="curve" smooth="yes"/>
      <point x="982" y="713"/>
      <point x="1247" y="971"/>
      <point x="1247" y="1317" type="curve" smooth="yes"/>
      <point x="1247" y="1661"/>
      <point x="986" y="1919"/>
      <point x="674" y="1919" type="curve" smooth="yes"/>
      <point x="356" y="1919"/>
      <point x="102" y="1652"/>
    </contour>
    <contour>
      <point x="201" y="1317" type="curve" smooth="yes"/>
      <point x="201" y="1584"/>
      <point x="393" y="1817"/>
      <point x="674" y="1817" type="curve" smooth="yes"/>
      <point x="930" y="1817"/>
      <point x="1147" y="1606"/>
      <point x="1147" y="1317" type="curve" smooth="yes"/>
      <point x="1147" y="1044"/>
      <point x="948" y="815"/>
      <point x="674" y="815" type="curve" smooth="yes"/>
      <point x="398" y="815"/>
      <point x="201" y="1046"/>
    </contour>
    <contour>
      <point x="684" y="1255" type="line" smooth="yes"/>
      <point x="769" y="1255"/>
      <point x="801" y="1222"/>
      <point x="801" y="1141" type="curve" smooth="yes"/>
      <point x="801" y="1055"/>
      <point x="805" y="1003"/>
      <point x="813" y="985" type="curve"/>
      <point x="936" y="985" type="line"/>
      <point x="936" y="997" type="line"/>
      <point x="924" y="1025"/>
      <point x="924" y="1065"/>
      <point x="924" y="1138" type="curve" smooth="yes"/>
      <point x="924" y="1226"/>
      <point x="900" y="1283"/>
      <point x="840" y="1319" type="curve"/>
      <point x="897" y="1352"/>
      <point x="926" y="1397"/>
      <point x="926" y="1456" type="curve" smooth="yes"/>
      <point x="926" y="1589"/>
      <point x="827" y="1669"/>
      <point x="664" y="1669" type="curve" smooth="yes"/>
      <point x="436" y="1669" type="line"/>
      <point x="436" y="985" type="line"/>
      <point x="557" y="985" type="line"/>
      <point x="557" y="1255" type="line"/>
    </contour>
    <contour>
      <point x="557" y="1561" type="line"/>
      <point x="672" y="1561" type="line" smooth="yes"/>
      <point x="773" y="1561"/>
      <point x="803" y="1531"/>
      <point x="803" y="1458" type="curve" smooth="yes"/>
      <point x="803" y="1401"/>
      <point x="743" y="1364"/>
      <point x="662" y="1364" type="curve" smooth="yes"/>
      <point x="557" y="1364" type="line"/>
    </contour>
  </outline>
</glyph>
<glyph name="degree" format="2">
  <advance width="635"/>
  <unicode hex="00B0"/>
  <note>
uni00B0
</note>
  <outline>
    <contour>
      <point x="61" y="1339" type="curve" smooth="yes"/>
      <point x="61" y="1198"/>
      <point x="176" y="1083"/>
      <point x="319" y="1083" type="curve" smooth="yes"/>
      <point x="461" y="1083"/>
      <point x="573" y="1198"/>
      <point x="573" y="1339" type="curve" smooth="yes"/>
      <point x="573" y="1485"/>
      <point x="459" y="1599"/>
      <point x="319" y="1599" type="curve" smooth="yes"/>
      <point x="180" y="1599"/>
      <point x="61" y="1485"/>
    </contour>
    <contour>
      <point x="319" y="1225" type="curve" smooth="yes"/>
      <point x="256" y="1225"/>
      <point x="205" y="1274"/>
      <point x="205" y="1339" type="curve" smooth="yes"/>
      <point x="205" y="1405"/>
      <point x="256" y="1458"/>
      <point x="319" y="1458" type="curve" smooth="yes"/>
      <point x="385" y="1458"/>
      <point x="432" y="1405"/>
      <point x="432" y="1339" type="curve" smooth="yes"/>
      <point x="432" y="1276"/>
      <point x="385" y="1225"/>
    </contour>
  </outline>
</glyph>
<glyph name="ordmasculine" format="2">
  <advance width="904"/>
  <unicode hex="00BA"/>
  <note>
uni00BA
</note>
  <outline>
    <contour>
      <point x="113" y="1899" type="line"/>
      <point x="113" y="1692"/>
      <point x="244" y="1554"/>
      <point x="448" y="1554" type="curve" smooth="yes"/>
      <point x="649" y="1554"/>
      <point x="781" y="1690"/>
      <point x="781" y="1896" type="curve" smooth="yes"/>
      <point x="781" y="1965" type="line" smooth="yes"/>
      <point x="781" y="2178"/>
      <point x="645" y="2311"/>
      <point x="445" y="2311" type="curve" smooth="yes"/>
      <point x="245" y="2311"/>
      <point x="113" y="2174"/>
      <point x="113" y="1969" type="curve" smooth="yes"/>
    </contour>
    <contour>
      <point x="282" y="1967" type="line"/>
      <point x="282" y="2096"/>
      <point x="344" y="2169"/>
      <point x="446" y="2169" type="curve" smooth="yes"/>
      <point x="548" y="2169"/>
      <point x="611" y="2092"/>
      <point x="611" y="1969" type="curve" smooth="yes"/>
      <point x="611" y="1892" type="line" smooth="yes"/>
      <point x="611" y="1767"/>
      <point x="547" y="1694"/>
      <point x="448" y="1694" type="curve" smooth="yes"/>
      <point x="343" y="1694"/>
      <point x="282" y="1768"/>
      <point x="282" y="1896" type="curve" smooth="yes"/>
    </contour>
  </outline>
</glyph>
<glyph name="Acircumflex" format="2">
  <advance width="1342"/>
  <unicode hex="00C2"/>
  <note>
uni00C2
</note>
  <outline>
    <contour>
      <point x="983" y="0" type="line"/>
      <point x="1346" y="0" type="line"/>
      <point x="828" y="1404" type="line"/>
      <point x="510" y="1404" type="line"/>
      <point x="-3" y="0" type="line"/>
      <point x="357" y="0" type="line"/>
      <point x="438" y="262" type="line"/>
      <point x="900" y="262" type="line"/>
    </contour>
    <contour>
      <point x="670" y="1010" type="line"/>
      <point x="821" y="523" type="line"/>
      <point x="519" y="523" type="line"/>
    </contour>
    <contour>
      <point x="767" y="1778" type="line"/>
      <point x="580" y="1778" type="line"/>
      <point x="269" y="1511" type="line"/>
      <point x="269" y="1494" type="line"/>
      <point x="519" y="1494" type="line"/>
      <point x="672" y="1625" type="line"/>
      <point x="826" y="1494" type="line"/>
      <point x="1082" y="1494" type="line"/>
      <point x="1082" y="1507" type="line"/>
    </contour>
  </outline>
</glyph>
<glyph name="Atilde" format="2">
  <advance width="1342"/>
  <unicode hex="00C3"/>
  <note>
uni00C3
</note>
  <outline>
    <contour>
      <point x="983" y="0" type="line"/>
      <point x="1346" y="0" type="line"/>
      <point x="828" y="1404" type="line"/>
      <point x="510" y="1404" type="line"/>
      <point x="-3" y="0" type="line"/>
      <point x="357" y="0" type="line"/>
      <point x="438" y="262" type="line"/>
      <point x="900" y="262" type="line"/>
    </contour>
    <contour>
      <point x="670" y="1010" type="line"/>
      <point x="821" y="523" type="line"/>
      <point x="519" y="523" type="line"/>
    </contour>
    <contour>
      <point x="866" y="1780" type="line"/>
      <point x="866" y="1719"/>
      <point x="832" y="1694"/>
      <point x="790" y="1694" type="curve" smooth="yes"/>
      <point x="689" y="1694"/>
      <point x="624" y="1773"/>
      <point x="521" y="1773" type="curve" smooth="yes"/>
      <point x="398" y="1773"/>
      <point x="298" y="1653"/>
      <point x="298" y="1509" type="curve"/>
      <point x="478" y="1500" type="line"/>
      <point x="478" y="1561"/>
      <point x="514" y="1586"/>
      <point x="553" y="1586" type="curve" smooth="yes"/>
      <point x="620" y="1586"/>
      <point x="750" y="1505"/>
      <point x="824" y="1505" type="curve" smooth="yes"/>
      <point x="946" y="1505"/>
      <point x="1044" y="1620"/>
      <point x="1044" y="1771" type="curve"/>
    </contour>
  </outline>
</glyph>
<glyph name="Aring" format="2">
  <advance width="1342"/>
  <unicode hex="00C5"/>
  <note>
uni00C5
</note>
  <outline>
    <contour>
      <point x="983" y="0" type="line"/>
      <point x="1346" y="0" type="line"/>
      <point x="828" y="1404" type="line"/>
      <point x="510" y="1404" type="line"/>
      <point x="-3" y="0" type="line"/>
      <point x="357" y="0" type="line"/>
      <point x="438" y="262" type="line"/>
      <point x="900" y="262" type="line"/>
    </contour>
    <contour>
      <point x="670" y="1010" type="line"/>
      <point x="821" y="523" type="line"/>
      <point x="519" y="523" type="line"/>
    </contour>
    <contour>
      <point x="459" y="1664" type="curve" smooth="yes"/>
      <point x="459" y="1553"/>
      <point x="551" y="1473"/>
      <point x="676" y="1473" type="curve" smooth="yes"/>
      <point x="797" y="1473"/>
      <point x="891" y="1553"/>
      <point x="891" y="1664" type="curve" smooth="yes"/>
      <point x="891" y="1777"/>
      <point x="794" y="1859"/>
      <point x="676" y="1859" type="curve" smooth="yes"/>
      <point x="553" y="1859"/>
      <point x="459" y="1777"/>
    </contour>
    <contour>
      <point x="676" y="1563" type="curve" smooth="yes"/>
      <point x="541" y="1563"/>
      <point x="540" y="1769"/>
      <point x="676" y="1769" type="curve" smooth="yes"/>
      <point x="805" y="1769"/>
      <point x="807" y="1563"/>
    </contour>
  </outline>
</glyph>
<glyph name="Edieresis" format="2">
  <advance width="1103"/>
  <unicode hex="00CB"/>
  <note>
uni00CB
</note>
  <outline>
    <contour>
      <point x="975" y="845" type="line"/>
      <point x="444" y="845" type="line"/>
      <point x="444" y="1140" type="line"/>
      <point x="1073" y="1140" type="line"/>
      <point x="1073" y="1404" type="line"/>
      <point x="106" y="1404" type="line"/>
      <point x="106" y="0" type="line"/>
      <point x="1070" y="0" type="line"/>
      <point x="1070" y="260" type="line"/>
      <point x="444" y="260" type="line"/>
      <point x="444" y="595" type="line"/>
      <point x="975" y="595" type="line"/>
    </contour>
    <contour>
      <point x="223" y="1613" type="curve" smooth="yes"/>
      <point x="223" y="1544"/>
      <point x="285" y="1485"/>
      <point x="369" y="1485" type="curve" smooth="yes"/>
      <point x="452" y="1485"/>
      <point x="514" y="1543"/>
      <point x="514" y="1614" type="curve" smooth="yes"/>
      <point x="514" y="1685"/>
      <point x="452" y="1739"/>
      <point x="369" y="1739" type="curve" smooth="yes"/>
      <point x="285" y="1739"/>
      <point x="223" y="1685"/>
    </contour>
    <contour>
      <point x="723" y="1613" type="curve" smooth="yes"/>
      <point x="723" y="1544"/>
      <point x="784" y="1485"/>
      <point x="867" y="1485" type="curve" smooth="yes"/>
      <point x="952" y="1485"/>
      <point x="1011" y="1543"/>
      <point x="1011" y="1614" type="curve" smooth="yes"/>
      <point x="1011" y="1685"/>
      <point x="952" y="1739"/>
      <point x="867" y="1739" type="curve" smooth="yes"/>
      <point x="784" y="1739"/>
      <point x="723" y="1685"/>
    </contour>
  </outline>
</glyph>
<glyph name="Icircumflex" format="2">
  <advance width="595"/>
  <unicode hex="00CE"/>
  <note>
uni00CE
</note>
  <outline>
    <contour>
      <point x="466" y="1404" type="line"/>
      <point x="128" y="1404" type="line"/>
      <point x="128" y="0" type="line"/>
      <point x="466" y="0" type="line"/>
    </contour>
    <contour>
      <point x="389" y="1778" type="line"/>
      <point x="205" y="1778" type="line"/>
      <point x="-106" y="1511" type="line"/>
      <point x="-106" y="1494" type="line"/>
      <point x="144" y="1494" type="line"/>
      <point x="298" y="1625" type="line"/>
      <point x="451" y="1494" type="line"/>
      <point x="707" y="1494" type="line"/>
      <point x="707" y="1507" type="line"/>
    </contour>
  </outline>
</glyph>
<glyph name="Oacute" format="2">
  <advance width="1361"/>
  <unicode hex="00D3"/>
  <note>
uni00D3
</note>
  <outline>
    <contour>
      <point x="1293" y="712" type="line"/>
      <point x="1293" y="1121"/>
      <point x="1042" y="1397"/>
      <point x="680" y="1397" type="curve" smooth="yes"/>
      <point x="317" y="1397"/>
      <point x="67" y="1131"/>
      <point x="67" y="703" type="curve" smooth="yes"/>
      <point x="67" y="624" type="line" smooth="yes"/>
      <point x="76" y="218"/>
      <point x="316" y="-45"/>
      <point x="682" y="-45" type="curve" smooth="yes"/>
      <point x="1051" y="-45"/>
      <point x="1293" y="226"/>
      <point x="1293" y="647" type="curve" smooth="yes"/>
    </contour>
    <contour>
      <point x="951" y="640" type="line"/>
      <point x="951" y="366"/>
      <point x="854" y="219"/>
      <point x="682" y="219" type="curve" smooth="yes"/>
      <point x="502" y="219"/>
      <point x="412" y="371"/>
      <point x="412" y="647" type="curve" smooth="yes"/>
      <point x="412" y="750" type="line" smooth="yes"/>
      <point x="423" y="1004"/>
      <point x="512" y="1131"/>
      <point x="680" y="1131" type="curve" smooth="yes"/>
      <point x="854" y="1131"/>
      <point x="951" y="985"/>
      <point x="951" y="705" type="curve" smooth="yes"/>
    </contour>
    <contour>
      <point x="529" y="1449" type="line"/>
      <point x="794" y="1449" type="line"/>
      <point x="1063" y="1752" type="line"/>
      <point x="721" y="1752" type="line"/>
    </contour>
  </outline>
</glyph>
<glyph name="multiply" format="2">
  <advance width="1063"/>
  <unicode hex="00D7"/>
  <outline>
    <contour>
      <point x="928" y="904" type="line"/>
      <point x="740" y="1089" type="line"/>
      <point x="525" y="873" type="line"/>
      <point x="311" y="1085" type="line"/>
      <point x="133" y="907" type="line"/>
      <point x="346" y="694" type="line"/>
      <point x="113" y="462" type="line"/>
      <point x="299" y="276" type="line"/>
      <point x="532" y="509" type="line"/>
      <point x="754" y="285" type="line"/>
      <point x="934" y="465" type="line"/>
      <point x="712" y="687" type="line"/>
    </contour>
  </outline>
</glyph>
<glyph name="Oslash" format="2">
  <advance width="1357"/>
  <unicode hex="00D8"/>
  <note>
uni00D8
</note>
  <outline>
    <contour>
      <point x="1304" y="600" type="line"/>
      <point x="1304" y="829"/>
      <point x="1239" y="1008"/>
      <point x="1110" y="1135" type="curve"/>
      <point x="1227" y="1339" type="line"/>
      <point x="1024" y="1339" type="line"/>
      <point x="966" y="1236" type="line"/>
      <point x="884" y="1279"/>
      <point x="791" y="1300"/>
      <point x="691" y="1300" type="curve" smooth="yes"/>
      <point x="328" y="1300"/>
      <point x="78" y="1034"/>
      <point x="78" y="606" type="curve" smooth="yes"/>
      <point x="78" y="557" type="line" smooth="yes"/>
      <point x="78" y="328"/>
      <point x="142" y="151"/>
      <point x="270" y="22" type="curve"/>
      <point x="134" y="-214" type="line"/>
      <point x="335" y="-214" type="line"/>
      <point x="412" y="-79" type="line"/>
      <point x="495" y="-121"/>
      <point x="590" y="-142"/>
      <point x="693" y="-142" type="curve" smooth="yes"/>
      <point x="1053" y="-142"/>
      <point x="1304" y="124"/>
      <point x="1304" y="550" type="curve" smooth="yes"/>
    </contour>
    <contour>
      <point x="962" y="543" type="line"/>
      <point x="958" y="270"/>
      <point x="865" y="122"/>
      <point x="693" y="122" type="curve" smooth="yes"/>
      <point x="638" y="122"/>
      <point x="590" y="136"/>
      <point x="551" y="165" type="curve"/>
      <point x="932" y="829" type="line"/>
      <point x="952" y="768"/>
      <point x="962" y="694"/>
      <point x="962" y="608" type="curve" smooth="yes"/>
    </contour>
    <contour>
      <point x="423" y="615" type="line"/>
      <point x="423" y="889"/>
      <point x="511" y="1034"/>
      <point x="691" y="1034" type="curve" smooth="yes"/>
      <point x="742" y="1034"/>
      <point x="787" y="1021"/>
      <point x="826" y="993" type="curve"/>
      <point x="448" y="331" type="line"/>
      <point x="431" y="392"/>
      <point x="423" y="464"/>
      <point x="423" y="550" type="curve" smooth="yes"/>
    </contour>
  </outline>
</glyph>
<glyph name="Ugrave" format="2">
  <advance width="1309"/>
  <unicode hex="00D9"/>
  <note>
uni00D9
</note>
  <outline>
    <contour>
      <point x="866" y="1376" type="line"/>
      <point x="866" y="462" type="line" smooth="yes"/>
      <point x="866" y="285"/>
      <point x="794" y="215"/>
      <point x="653" y="215" type="curve" smooth="yes"/>
      <point x="514" y="215"/>
      <point x="444" y="292"/>
      <point x="441" y="447" type="curve" smooth="yes"/>
      <point x="441" y="1376" type="line"/>
      <point x="101" y="1376" type="line"/>
      <point x="101" y="451" type="line" smooth="yes"/>
      <point x="104" y="144"/>
      <point x="313" y="-45"/>
      <point x="653" y="-45" type="curve" smooth="yes"/>
      <point x="996" y="-45"/>
      <point x="1204" y="141"/>
      <point x="1204" y="460" type="curve" smooth="yes"/>
      <point x="1204" y="1376" type="line"/>
    </contour>
    <contour>
      <point x="610" y="1752" type="line"/>
      <point x="270" y="1752" type="line"/>
      <point x="540" y="1449" type="line"/>
      <point x="804" y="1449" type="line"/>
    </contour>
  </outline>
</glyph>
<glyph name="Yacute" format="2">
  <advance width="1236"/>
  <unicode hex="00DD"/>
  <note>
uni00DD
</note>
  <outline>
    <contour>
      <point x="360" y="1404" type="line"/>
      <point x="-3" y="1404" type="line"/>
      <point x="448" y="505" type="line"/>
      <point x="448" y="0" type="line"/>
      <point x="790" y="0" type="line"/>
      <point x="790" y="505" type="line"/>
      <point x="1240" y="1404" type="line"/>
      <point x="878" y="1404" type="line"/>
      <point x="618" y="793" type="line"/>
    </contour>
    <contour>
      <point x="472" y="1475" type="line"/>
      <point x="736" y="1475" type="line"/>
      <point x="1003" y="1778" type="line"/>
      <point x="661" y="1778" type="line"/>
    </contour>
  </outline>
</glyph>
<glyph name="Thorn" format="2">
  <advance width="1218"/>
  <unicode hex="00DE"/>
  <note>
uni00DE
</note>
  <outline>
    <contour>
      <point x="112" y="1404" type="line"/>
      <point x="112" y="0" type="line"/>
      <point x="439" y="0" type="line"/>
      <point x="439" y="268" type="line"/>
      <point x="635" y="268" type="line" smooth="yes"/>
      <point x="965" y="271"/>
      <point x="1168" y="441"/>
      <point x="1168" y="712" type="curve" smooth="yes"/>
      <point x="1168" y="970"/>
      <point x="977" y="1154"/>
      <point x="635" y="1154" type="curve" smooth="yes"/>
      <point x="439" y="1154" type="line"/>
      <point x="439" y="1404" type="line"/>
    </contour>
    <contour>
      <point x="632" y="903" type="line"/>
      <point x="761" y="903"/>
      <point x="841" y="829"/>
      <point x="841" y="710" type="curve" smooth="yes"/>
      <point x="841" y="590"/>
      <point x="762" y="518"/>
      <point x="630" y="518" type="curve" smooth="yes"/>
      <point x="439" y="518" type="line"/>
      <point x="439" y="903" type="line"/>
    </contour>
  </outline>
</glyph>
<glyph name="germandbls" format="2">
  <advance width="1281"/>
  <unicode hex="00DF"/>
  <note>
uni00DF
</note>
  <outline>
    <contour>
      <point x="456" y="1027" type="line"/>
      <point x="456" y="1159"/>
      <point x="496" y="1228"/>
      <point x="589" y="1228" type="curve" smooth="yes"/>
      <point x="667" y="1228"/>
      <point x="724" y="1173"/>
      <point x="724" y="1097" type="curve" smooth="yes"/>
      <point x="724" y="1046"/>
      <point x="709" y="993"/>
      <point x="679" y="939" type="curve" smooth="yes"/>
      <point x="648" y="886"/>
      <point x="634" y="826"/>
      <point x="634" y="761" type="curve" smooth="yes"/>
      <point x="634" y="666"/>
      <point x="670" y="590"/>
      <point x="775" y="502" type="curve" smooth="yes"/>
      <point x="861" y="427"/>
      <point x="899" y="385"/>
      <point x="899" y="327" type="curve" smooth="yes"/>
      <point x="899" y="249"/>
      <point x="845" y="205"/>
      <point x="767" y="205" type="curve" smooth="yes"/>
      <point x="686" y="205"/>
      <point x="618" y="219"/>
      <point x="562" y="248" type="curve"/>
      <point x="505" y="4" type="line"/>
      <point x="563" y="-29"/>
      <point x="668" y="-45"/>
      <point x="764" y="-45" type="curve" smooth="yes"/>
      <point x="1059" y="-45"/>
      <point x="1224" y="89"/>
      <point x="1224" y="329" type="curve" smooth="yes"/>
      <point x="1224" y="425"/>
      <point x="1179" y="517"/>
      <point x="1086" y="606" type="curve" smooth="yes"/>
      <point x="1032" y="659"/>
      <point x="997" y="695"/>
      <point x="982" y="716" type="curve" smooth="yes"/>
      <point x="966" y="737"/>
      <point x="959" y="758"/>
      <point x="959" y="780" type="curve" smooth="yes"/>
      <point x="959" y="834"/>
      <point x="973" y="886"/>
      <point x="1004" y="934" type="curve" smooth="yes"/>
      <point x="1033" y="982"/>
      <point x="1049" y="1042"/>
      <point x="1049" y="1111" type="curve" smooth="yes"/>
      <point x="1049" y="1333"/>
      <point x="875" y="1475"/>
      <point x="622" y="1475" type="curve" smooth="yes"/>
      <point x="307" y="1475"/>
      <point x="129" y="1317"/>
      <point x="129" y="1034" type="curve" smooth="yes"/>
      <point x="129" y="-25" type="line"/>
      <point x="456" y="-25" type="line"/>
    </contour>
  </outline>
</glyph>
<glyph name="adieresis" format="2">
  <advance width="1047"/>
  <unicode hex="00E4"/>
  <note>
uni00E4
</note>
  <outline>
    <contour>
      <point x="1003" y="-25" type="line"/>
      <point x="1003" y="-9" type="line"/>
      <point x="974" y="41"/>
      <point x="960" y="114"/>
      <point x="958" y="212" type="curve" smooth="yes"/>
      <point x="958" y="671" type="line" smooth="yes"/>
      <point x="955" y="900"/>
      <point x="793" y="1034"/>
      <point x="525" y="1034" type="curve" smooth="yes"/>
      <point x="258" y="1034"/>
      <point x="68" y="898"/>
      <point x="68" y="696" type="curve"/>
      <point x="392" y="696" type="line"/>
      <point x="392" y="771"/>
      <point x="431" y="809"/>
      <point x="508" y="809" type="curve" smooth="yes"/>
      <point x="591" y="809"/>
      <point x="633" y="761"/>
      <point x="633" y="667" type="curve" smooth="yes"/>
      <point x="633" y="611" type="line"/>
      <point x="532" y="611" type="line" smooth="yes"/>
      <point x="214" y="611"/>
      <point x="43" y="494"/>
      <point x="43" y="268" type="curve" smooth="yes"/>
      <point x="43" y="88"/>
      <point x="202" y="-45"/>
      <point x="397" y="-45" type="curve" smooth="yes"/>
      <point x="503" y="-45"/>
      <point x="587" y="-8"/>
      <point x="647" y="67" type="curve"/>
      <point x="656" y="28"/>
      <point x="667" y="-3"/>
      <point x="678" y="-25" type="curve"/>
    </contour>
    <contour>
      <point x="476" y="185" type="curve" smooth="yes"/>
      <point x="413" y="185"/>
      <point x="370" y="226"/>
      <point x="370" y="286" type="curve" smooth="yes"/>
      <point x="370" y="387"/>
      <point x="425" y="437"/>
      <point x="536" y="437" type="curve" smooth="yes"/>
      <point x="633" y="437" type="line"/>
      <point x="633" y="271" type="line"/>
      <point x="610" y="229"/>
      <point x="554" y="185"/>
    </contour>
    <contour>
      <point x="118" y="1288" type="curve" smooth="yes"/>
      <point x="118" y="1220"/>
      <point x="181" y="1161"/>
      <point x="263" y="1161" type="curve" smooth="yes"/>
      <point x="346" y="1161"/>
      <point x="409" y="1219"/>
      <point x="409" y="1289" type="curve" smooth="yes"/>
      <point x="409" y="1361"/>
      <point x="346" y="1417"/>
      <point x="263" y="1417" type="curve" smooth="yes"/>
      <point x="181" y="1417"/>
      <point x="118" y="1361"/>
    </contour>
    <contour>
      <point x="618" y="1288" type="curve" smooth="yes"/>
      <point x="618" y="1220"/>
      <point x="680" y="1161"/>
      <point x="763" y="1161" type="curve" smooth="yes"/>
      <point x="845" y="1161"/>
      <point x="908" y="1219"/>
      <point x="908" y="1289" type="curve" smooth="yes"/>
      <point x="908" y="1361"/>
      <point x="845" y="1417"/>
      <point x="763" y="1417" type="curve" smooth="yes"/>
      <point x="680" y="1417"/>
      <point x="618" y="1361"/>
    </contour>
  </outline>
</glyph>
<glyph name="ae" format="2">
  <advance width="1665"/>
  <unicode hex="00E6"/>
  <note>
uni00E6
</note>
  <outline>
    <contour>
      <point x="1192" y="-45" type="curve" smooth="yes"/>
      <point x="1339" y="-45"/>
      <point x="1501" y="3"/>
      <point x="1589" y="73" type="curve"/>
      <point x="1510" y="271" type="line"/>
      <point x="1388" y="217"/>
      <point x="1369" y="205"/>
      <point x="1237" y="205" type="curve" smooth="yes"/>
      <point x="1105" y="205"/>
      <point x="1026" y="268"/>
      <point x="1007" y="392" type="curve"/>
      <point x="1622" y="392" type="line"/>
      <point x="1622" y="561" type="line" smooth="yes"/>
      <point x="1622" y="853"/>
      <point x="1454" y="1034"/>
      <point x="1183" y="1034" type="curve" smooth="yes"/>
      <point x="1057" y="1035"/>
      <point x="954" y="1007"/>
      <point x="874" y="946" type="curve"/>
      <point x="798" y="1004"/>
      <point x="695" y="1034"/>
      <point x="566" y="1034" type="curve" smooth="yes"/>
      <point x="283" y="1034"/>
      <point x="95" y="898"/>
      <point x="95" y="705" type="curve"/>
      <point x="420" y="688" type="line"/>
      <point x="420" y="741"/>
      <point x="467" y="784"/>
      <point x="564" y="784" type="curve" smooth="yes"/>
      <point x="644" y="784"/>
      <point x="689" y="733"/>
      <point x="689" y="649" type="curve" smooth="yes"/>
      <point x="689" y="606" type="line"/>
      <point x="552" y="606" type="line" smooth="yes"/>
      <point x="228" y="603"/>
      <point x="59" y="487"/>
      <point x="59" y="286" type="curve" smooth="yes"/>
      <point x="59" y="79"/>
      <point x="209" y="-45"/>
      <point x="467" y="-45" type="curve" smooth="yes"/>
      <point x="611" y="-45"/>
      <point x="740" y="-1"/>
      <point x="827" y="84" type="curve"/>
      <point x="917" y="-2"/>
      <point x="1039" y="-45"/>
    </contour>
    <contour>
      <point x="528" y="178" type="curve" smooth="yes"/>
      <point x="432" y="178"/>
      <point x="383" y="213"/>
      <point x="383" y="284" type="curve" smooth="yes"/>
      <point x="383" y="356"/>
      <point x="455" y="408"/>
      <point x="557" y="408" type="curve" smooth="yes"/>
      <point x="689" y="408" type="line"/>
      <point x="689" y="239" type="line"/>
      <point x="639" y="198"/>
      <point x="585" y="178"/>
    </contour>
    <contour>
      <point x="1183" y="784" type="curve" smooth="yes"/>
      <point x="1261" y="784"/>
      <point x="1304" y="724"/>
      <point x="1304" y="622" type="curve" smooth="yes"/>
      <point x="1304" y="595" type="line"/>
      <point x="1007" y="595" type="line"/>
      <point x="1026" y="724"/>
      <point x="1075" y="784"/>
    </contour>
  </outline>
</glyph>
<glyph name="iacute" format="2">
  <advance width="565"/>
  <unicode hex="00ED"/>
  <note>
uni00ED
</note>
  <outline>
    <contour>
      <point x="446" y="1041" type="line"/>
      <point x="119" y="1041" type="line"/>
      <point x="119" y="0" type="line"/>
      <point x="446" y="0" type="line"/>
    </contour>
    <contour>
      <point x="134" y="1158" type="line"/>
      <point x="398" y="1158" type="line"/>
      <point x="669" y="1460" type="line"/>
      <point x="324" y="1460" type="line"/>
    </contour>
  </outline>
</glyph>
<glyph name="icircumflex" format="2">
  <advance width="563"/>
  <unicode hex="00EE"/>
  <note>
uni00EE
</note>
  <outline>
    <contour>
      <point x="445" y="1041" type="line"/>
      <point x="119" y="1041" type="line"/>
      <point x="119" y="0" type="line"/>
      <point x="445" y="0" type="line"/>
    </contour>
    <contour>
      <point x="375" y="1460" type="line"/>
      <point x="191" y="1460" type="line"/>
      <point x="-120" y="1194" type="line"/>
      <point x="-120" y="1176" type="line"/>
      <point x="130" y="1176" type="line"/>
      <point x="284" y="1307" type="line"/>
      <point x="437" y="1176" type="line"/>
      <point x="693" y="1176" type="line"/>
      <point x="693" y="1189" type="line"/>
    </contour>
  </outline>
</glyph>
<glyph name="odieresis" format="2">
  <advance width="1109"/>
  <unicode hex="00F6"/>
  <note>
uni00F6
</note>
  <outline>
    <contour>
      <point x="50" y="449" type="line"/>
      <point x="66" y="147"/>
      <point x="257" y="-45"/>
      <point x="555" y="-45" type="curve" smooth="yes"/>
      <point x="861" y="-45"/>
      <point x="1057" y="160"/>
      <point x="1057" y="484" type="curve" smooth="yes"/>
      <point x="1057" y="496" type="line" smooth="yes"/>
      <point x="1057" y="829"/>
      <point x="865" y="1034"/>
      <point x="553" y="1034" type="curve" smooth="yes"/>
      <point x="232" y="1034"/>
      <point x="50" y="816"/>
      <point x="50" y="505" type="curve" smooth="yes"/>
    </contour>
    <contour>
      <point x="377" y="543" type="line"/>
      <point x="386" y="704"/>
      <point x="444" y="784"/>
      <point x="553" y="784" type="curve" smooth="yes"/>
      <point x="673" y="784"/>
      <point x="732" y="691"/>
      <point x="732" y="505" type="curve" smooth="yes"/>
      <point x="732" y="473" type="line" smooth="yes"/>
      <point x="730" y="295"/>
      <point x="671" y="205"/>
      <point x="555" y="205" type="curve" smooth="yes"/>
      <point x="434" y="205"/>
      <point x="375" y="293"/>
      <point x="375" y="484" type="curve" smooth="yes"/>
    </contour>
    <contour>
      <point x="158" y="1288" type="curve" smooth="yes"/>
      <point x="158" y="1220"/>
      <point x="221" y="1161"/>
      <point x="303" y="1161" type="curve" smooth="yes"/>
      <point x="386" y="1161"/>
      <point x="448" y="1219"/>
      <point x="448" y="1289" type="curve" smooth="yes"/>
      <point x="448" y="1361"/>
      <point x="386" y="1417"/>
      <point x="303" y="1417" type="curve" smooth="yes"/>
      <point x="221" y="1417"/>
      <point x="158" y="1361"/>
    </contour>
    <contour>
      <point x="659" y="1288" type="curve" smooth="yes"/>
      <point x="659" y="1220"/>
      <point x="721" y="1161"/>
      <point x="804" y="1161" type="curve" smooth="yes"/>
      <point x="886" y="1161"/>
      <point x="949" y="1219"/>
      <point x="949" y="1289" type="curve" smooth="yes"/>
      <point x="949" y="1361"/>
      <point x="886" y="1417"/>
      <point x="804" y="1417" type="curve" smooth="yes"/>
      <point x="721" y="1417"/>
      <point x="659" y="1361"/>
    </contour>
  </outline>
</glyph>
<glyph name="oslash" format="2">
  <advance width="1110"/>
  <unicode hex="00F8"/>
  <note>
uni00F8
</note>
  <outline>
    <contour>
      <point x="50" y="512" type="curve" smooth="yes"/>
      <point x="50" y="297"/>
      <point x="117" y="143"/>
      <point x="250" y="50" type="curve"/>
      <point x="149" y="-157" type="line"/>
      <point x="323" y="-157" type="line"/>
      <point x="390" y="-18" type="line"/>
      <point x="440" y="-30"/>
      <point x="495" y="-36"/>
      <point x="555" y="-36" type="curve" smooth="yes"/>
      <point x="861" y="-36"/>
      <point x="1057" y="166"/>
      <point x="1057" y="494" type="curve" smooth="yes"/>
      <point x="1057" y="704"/>
      <point x="992" y="856"/>
      <point x="861" y="950" type="curve"/>
      <point x="958" y="1156" type="line"/>
      <point x="789" y="1156" type="line"/>
      <point x="721" y="1019" type="line"/>
      <point x="668" y="1035"/>
      <point x="612" y="1043"/>
      <point x="553" y="1043" type="curve" smooth="yes"/>
      <point x="235" y="1043"/>
      <point x="50" y="828"/>
    </contour>
    <contour>
      <point x="377" y="552" type="line"/>
      <point x="386" y="713"/>
      <point x="444" y="793"/>
      <point x="553" y="793" type="curve" smooth="yes"/>
      <point x="574" y="793"/>
      <point x="591" y="790"/>
      <point x="607" y="784" type="curve"/>
      <point x="392" y="340" type="line"/>
      <point x="380" y="380"/>
      <point x="375" y="430"/>
      <point x="375" y="494" type="curve" smooth="yes"/>
    </contour>
    <contour>
      <point x="732" y="480" type="line"/>
      <point x="730" y="303"/>
      <point x="671" y="215"/>
      <point x="555" y="215" type="curve" smooth="yes"/>
      <point x="535" y="215"/>
      <point x="518" y="216"/>
      <point x="503" y="219" type="curve"/>
      <point x="715" y="656" type="line"/>
      <point x="727" y="615"/>
      <point x="732" y="567"/>
      <point x="732" y="512" type="curve" smooth="yes"/>
    </contour>
  </outline>
</glyph>
<glyph name="ugrave" format="2">
  <advance width="1113"/>
  <unicode hex="00F9"/>
  <note>
uni00F9
</note>
  <outline>
    <contour>
      <point x="721" y="-25" type="line"/>
      <point x="1026" y="-25" type="line"/>
      <point x="1026" y="1016" type="line"/>
      <point x="699" y="1016" type="line"/>
      <point x="699" y="286" type="line"/>
      <point x="667" y="232"/>
      <point x="615" y="205"/>
      <point x="542" y="205" type="curve" smooth="yes"/>
      <point x="454" y="205"/>
      <point x="411" y="250"/>
      <point x="411" y="340" type="curve" smooth="yes"/>
      <point x="411" y="1016" type="line"/>
      <point x="86" y="1016" type="line"/>
      <point x="86" y="342" type="line" smooth="yes"/>
      <point x="86" y="90"/>
      <point x="205" y="-45"/>
      <point x="433" y="-45" type="curve" smooth="yes"/>
      <point x="551" y="-45"/>
      <point x="643" y="-1"/>
      <point x="710" y="88" type="curve"/>
    </contour>
    <contour>
      <point x="519" y="1453" type="line"/>
      <point x="174" y="1453" type="line"/>
      <point x="447" y="1152" type="line"/>
      <point x="710" y="1152" type="line"/>
    </contour>
  </outline>
</glyph>
<glyph name="uacute" format="2">
  <advance width="1113"/>
  <unicode hex="00FA"/>
  <note>
uni00FA
</note>
  <outline>
    <contour>
      <point x="721" y="-25" type="line"/>
      <point x="1026" y="-25" type="line"/>
      <point x="1026" y="1016" type="line"/>
      <point x="699" y="1016" type="line"/>
      <point x="699" y="286" type="line"/>
      <point x="667" y="232"/>
      <point x="615" y="205"/>
      <point x="542" y="205" type="curve" smooth="yes"/>
      <point x="454" y="205"/>
      <point x="411" y="250"/>
      <point x="411" y="340" type="curve" smooth="yes"/>
      <point x="411" y="1016" type="line"/>
      <point x="86" y="1016" type="line"/>
      <point x="86" y="342" type="line" smooth="yes"/>
      <point x="86" y="90"/>
      <point x="205" y="-45"/>
      <point x="433" y="-45" type="curve" smooth="yes"/>
      <point x="551" y="-45"/>
      <point x="643" y="-1"/>
      <point x="710" y="88" type="curve"/>
    </contour>
    <contour>
      <point x="406" y="1152" type="line"/>
      <point x="672" y="1152" type="line"/>
      <point x="940" y="1453" type="line"/>
      <point x="596" y="1453" type="line"/>
    </contour>
  </outline>
</glyph>
<glyph name="udieresis" format="2">
  <advance width="1113"/>
  <unicode hex="00FC"/>
  <note>
uni00FC
</note>
  <outline>
    <contour>
      <point x="721" y="-25" type="line"/>
      <point x="1026" y="-25" type="line"/>
      <point x="1026" y="1016" type="line"/>
      <point x="699" y="1016" type="line"/>
      <point x="699" y="286" type="line"/>
      <point x="667" y="232"/>
      <point x="615" y="205"/>
      <point x="542" y="205" type="curve" smooth="yes"/>
      <point x="454" y="205"/>
      <point x="411" y="250"/>
      <point x="411" y="340" type="curve" smooth="yes"/>
      <point x="411" y="1016" type="line"/>
      <point x="86" y="1016" type="line"/>
      <point x="86" y="342" type="line" smooth="yes"/>
      <point x="86" y="90"/>
      <point x="205" y="-45"/>
      <point x="433" y="-45" type="curve" smooth="yes"/>
      <point x="551" y="-45"/>
      <point x="643" y="-1"/>
      <point x="710" y="88" type="curve"/>
    </contour>
    <contour>
      <point x="158" y="1288" type="curve" smooth="yes"/>
      <point x="158" y="1220"/>
      <point x="221" y="1161"/>
      <point x="304" y="1161" type="curve" smooth="yes"/>
      <point x="387" y="1161"/>
      <point x="449" y="1219"/>
      <point x="449" y="1289" type="curve" smooth="yes"/>
      <point x="449" y="1361"/>
      <point x="387" y="1417"/>
      <point x="304" y="1417" type="curve" smooth="yes"/>
      <point x="221" y="1417"/>
      <point x="158" y="1361"/>
    </contour>
    <contour>
      <point x="658" y="1288" type="curve" smooth="yes"/>
      <point x="658" y="1220"/>
      <point x="721" y="1161"/>
      <point x="804" y="1161" type="curve" smooth="yes"/>
      <point x="886" y="1161"/>
      <point x="949" y="1219"/>
      <point x="949" y="1289" type="curve" smooth="yes"/>
      <point x="949" y="1361"/>
      <point x="886" y="1417"/>
      <point x="804" y="1417" type="curve" smooth="yes"/>
      <point x="721" y="1417"/>
      <point x="658" y="1361"/>
    </contour>
  </outline>
</glyph>
<glyph name="thorn" format="2">
  <advance width="1104"/>
  <unicode hex="00FE"/>
  <note>
uni00FE
</note>
  <outline>
    <contour>
      <point x="1054" y="516" type="curve"/>
      <point x="1054" y="854"/>
      <point x="903" y="1047"/>
      <point x="651" y="1047" type="curve" smooth="yes"/>
      <point x="557" y="1047"/>
      <point x="480" y="1014"/>
      <point x="419" y="946" type="curve"/>
      <point x="419" y="1464" type="line"/>
      <point x="92" y="1464" type="line"/>
      <point x="92" y="-415" type="line"/>
      <point x="419" y="-415" type="line"/>
      <point x="419" y="69" type="line"/>
      <point x="480" y="2"/>
      <point x="557" y="-34"/>
      <point x="653" y="-34" type="curve" smooth="yes"/>
      <point x="883" y="-34"/>
      <point x="1054" y="144"/>
    </contour>
    <contour>
      <point x="733" y="518" type="curve" smooth="yes"/>
      <point x="730" y="322"/>
      <point x="692" y="217"/>
      <point x="572" y="217" type="curve" smooth="yes"/>
      <point x="498" y="217"/>
      <point x="445" y="245"/>
      <point x="419" y="299" type="curve"/>
      <point x="419" y="716" type="line"/>
      <point x="443" y="770"/>
      <point x="496" y="798"/>
      <point x="570" y="798" type="curve" smooth="yes"/>
      <point x="678" y="798"/>
      <point x="733" y="705"/>
    </contour>
  </outline>
</glyph>
<glyph name="oe" format="2">
  <advance width="1777"/>
  <unicode hex="0153"/>
  <note>
uni0153
</note>
  <outline>
    <contour>
      <point x="72" y="449" type="line"/>
      <point x="88" y="145"/>
      <point x="279" y="-45"/>
      <point x="577" y="-45" type="curve" smooth="yes"/>
      <point x="719" y="-45"/>
      <point x="836" y="-3"/>
      <point x="924" y="79" type="curve"/>
      <point x="1017" y="-3"/>
      <point x="1131" y="-45"/>
      <point x="1268" y="-45" type="curve" smooth="yes"/>
      <point x="1427" y="-45"/>
      <point x="1585" y="3"/>
      <point x="1678" y="73" type="curve"/>
      <point x="1602" y="271" type="line"/>
      <point x="1472" y="219"/>
      <point x="1432" y="205"/>
      <point x="1313" y="205" type="curve" smooth="yes"/>
      <point x="1200" y="205"/>
      <point x="1119" y="272"/>
      <point x="1095" y="392" type="curve"/>
      <point x="1699" y="392" type="line"/>
      <point x="1699" y="559" type="line" smooth="yes"/>
      <point x="1699" y="856"/>
      <point x="1529" y="1034"/>
      <point x="1246" y="1034" type="curve" smooth="yes"/>
      <point x="1112" y="1035"/>
      <point x="1003" y="997"/>
      <point x="917" y="917" type="curve"/>
      <point x="828" y="996"/>
      <point x="715" y="1034"/>
      <point x="575" y="1034" type="curve" smooth="yes"/>
      <point x="261" y="1034"/>
      <point x="72" y="816"/>
      <point x="72" y="505" type="curve" smooth="yes"/>
    </contour>
    <contour>
      <point x="399" y="543" type="line"/>
      <point x="408" y="704"/>
      <point x="466" y="784"/>
      <point x="575" y="784" type="curve" smooth="yes"/>
      <point x="695" y="784"/>
      <point x="754" y="691"/>
      <point x="754" y="505" type="curve" smooth="yes"/>
      <point x="754" y="471" type="line" smooth="yes"/>
      <point x="752" y="294"/>
      <point x="693" y="205"/>
      <point x="577" y="205" type="curve" smooth="yes"/>
      <point x="456" y="205"/>
      <point x="397" y="298"/>
      <point x="397" y="484" type="curve" smooth="yes"/>
    </contour>
    <contour>
      <point x="1246" y="784" type="curve" smooth="yes"/>
      <point x="1336" y="784"/>
      <point x="1381" y="730"/>
      <point x="1381" y="622" type="curve" smooth="yes"/>
      <point x="1381" y="595" type="line"/>
      <point x="1095" y="595" type="line"/>
      <point x="1109" y="721"/>
      <point x="1160" y="784"/>
    </contour>
  </outline>
</glyph>
<glyph name="scaron" format="2">
  <advance width="1010"/>
  <unicode hex="0161"/>
  <note>
uni0161
</note>
  <outline>
    <contour>
      <point x="638" y="268" type="curve" smooth="yes"/>
      <point x="638" y="211"/>
      <point x="592" y="169"/>
      <point x="505" y="169" type="curve" smooth="yes"/>
      <point x="409" y="169"/>
      <point x="339" y="212"/>
      <point x="336" y="309" type="curve"/>
      <point x="34" y="309" type="line"/>
      <point x="34" y="124"/>
      <point x="214" y="-45"/>
      <point x="496" y="-45" type="curve" smooth="yes"/>
      <point x="764" y="-45"/>
      <point x="951" y="88"/>
      <point x="951" y="277" type="curve" smooth="yes"/>
      <point x="951" y="417"/>
      <point x="873" y="513"/>
      <point x="716" y="565" type="curve" smooth="yes"/>
      <point x="612" y="602"/>
      <point x="374" y="613"/>
      <point x="374" y="723" type="curve" smooth="yes"/>
      <point x="374" y="780"/>
      <point x="427" y="823"/>
      <point x="496" y="823" type="curve" smooth="yes"/>
      <point x="583" y="823"/>
      <point x="627" y="780"/>
      <point x="627" y="696" type="curve"/>
      <point x="951" y="696" type="line"/>
      <point x="951" y="901"/>
      <point x="772" y="1034"/>
      <point x="496" y="1034" type="curve" smooth="yes"/>
      <point x="241" y="1034"/>
      <point x="68" y="897"/>
      <point x="68" y="707" type="curve" smooth="yes"/>
      <point x="68" y="542"/>
      <point x="192" y="438"/>
      <point x="428" y="385" type="curve" smooth="yes"/>
      <point x="503" y="369"/>
      <point x="638" y="345"/>
    </contour>
    <contour>
      <point x="350" y="1455" type="line"/>
      <point x="71" y="1455" type="line"/>
      <point x="71" y="1447" type="line"/>
      <point x="383" y="1172" type="line"/>
      <point x="593" y="1172" type="line"/>
      <point x="909" y="1444" type="line"/>
      <point x="909" y="1455" type="line"/>
      <point x="632" y="1455" type="line"/>
      <point x="490" y="1327" type="line"/>
    </contour>
  </outline>
</glyph>
<glyph name="Ydieresis" format="2">
  <advance width="1236"/>
  <unicode hex="0178"/>
  <note>
uni0178
</note>
  <outline>
    <contour>
      <point x="360" y="1404" type="line"/>
      <point x="-3" y="1404" type="line"/>
      <point x="448" y="505" type="line"/>
      <point x="448" y="0" type="line"/>
      <point x="790" y="0" type="line"/>
      <point x="790" y="505" type="line"/>
      <point x="1240" y="1404" type="line"/>
      <point x="878" y="1404" type="line"/>
      <point x="618" y="793" type="line"/>
    </contour>
    <contour>
      <point x="222" y="1613" type="curve" smooth="yes"/>
      <point x="222" y="1544"/>
      <point x="285" y="1485"/>
      <point x="367" y="1485" type="curve" smooth="yes"/>
      <point x="450" y="1485"/>
      <point x="512" y="1543"/>
      <point x="512" y="1614" type="curve" smooth="yes"/>
      <point x="512" y="1685"/>
      <point x="450" y="1739"/>
      <point x="367" y="1739" type="curve" smooth="yes"/>
      <point x="285" y="1739"/>
      <point x="222" y="1685"/>
    </contour>
    <contour>
      <point x="721" y="1613" type="curve" smooth="yes"/>
      <point x="721" y="1544"/>
      <point x="784" y="1485"/>
      <point x="867" y="1485" type="curve" smooth="yes"/>
      <point x="950" y="1485"/>
      <point x="1013" y="1543"/>
      <point x="1013" y="1614" type="curve" smooth="yes"/>
      <point x="1013" y="1685"/>
      <point x="950" y="1739"/>
      <point x="867" y="1739" type="curve" smooth="yes"/>
      <point x="784" y="1739"/>
      <point x="721" y="1685"/>
    </contour>
  </outline>
</glyph>
<glyph name="zcaron" format="2">
  <advance width="1016"/>
  <unicode hex="017E"/>
  <note>
uni017E
</note>
  <outline>
    <contour>
      <point x="938" y="867" type="line"/>
      <point x="938" y="1041" type="line"/>
      <point x="84" y="1041" type="line"/>
      <point x="84" y="791" type="line"/>
      <point x="526" y="791" type="line"/>
      <point x="64" y="183" type="line"/>
      <point x="64" y="0" type="line"/>
      <point x="949" y="0" type="line"/>
      <point x="949" y="250" type="line"/>
      <point x="474" y="250" type="line"/>
    </contour>
    <contour>
      <point x="365" y="1481" type="line"/>
      <point x="86" y="1481" type="line"/>
      <point x="86" y="1471" type="line"/>
      <point x="401" y="1196" type="line"/>
      <point x="612" y="1196" type="line"/>
      <point x="924" y="1469" type="line"/>
      <point x="924" y="1481" type="line"/>
      <point x="647" y="1481" type="line"/>
      <point x="507" y="1352" type="line"/>
    </contour>
  </outline>
</glyph>
<glyph name="florin" format="2">
  <advance width="768"/>
  <unicode hex="0192"/>
  <note>
uni0192
</note>
  <outline>
    <contour>
      <point x="730" y="639" type="line"/>
      <point x="513" y="639" type="line"/>
      <point x="513" y="723" type="line" smooth="yes"/>
      <point x="513" y="812"/>
      <point x="557" y="856"/>
      <point x="646" y="856" type="curve" smooth="yes"/>
      <point x="683" y="856"/>
      <point x="717" y="853"/>
      <point x="748" y="846" type="curve"/>
      <point x="773" y="1098" type="line"/>
      <point x="706" y="1111"/>
      <point x="650" y="1118"/>
      <point x="605" y="1118" type="curve" smooth="yes"/>
      <point x="324" y="1118"/>
      <point x="171" y="976"/>
      <point x="171" y="725" type="curve" smooth="yes"/>
      <point x="171" y="639" type="line"/>
      <point x="13" y="639" type="line"/>
      <point x="13" y="403" type="line"/>
      <point x="171" y="403" type="line"/>
      <point x="171" y="-492" type="line" smooth="yes"/>
      <point x="171" y="-595"/>
      <point x="142" y="-633"/>
      <point x="62" y="-633" type="curve" smooth="yes"/>
      <point x="28" y="-633"/>
      <point x="-1" y="-629"/>
      <point x="-26" y="-621" type="curve"/>
      <point x="-40" y="-879" type="line"/>
      <point x="8" y="-890"/>
      <point x="62" y="-895"/>
      <point x="122" y="-895" type="curve" smooth="yes"/>
      <point x="370" y="-895"/>
      <point x="511" y="-748"/>
      <point x="511" y="-492" type="curve" smooth="yes"/>
      <point x="513" y="403" type="line"/>
      <point x="730" y="403" type="line"/>
    </contour>
  </outline>
</glyph>
<glyph name="dal-ar" format="2">
  <advance width="1143"/>
  <unicode hex="062F"/>
  <anchor x="465" y="-180" name="bottom"/>
  <anchor x="515" y="1138" name="top"/>
  <outline>
    <contour>
      <point x="960" y="0" type="line" smooth="yes"/>
      <point x="1026" y="0"/>
      <point x="1062" y="37"/>
      <point x="1057" y="103" type="curve" smooth="yes"/>
      <point x="1028" y="452"/>
      <point x="921" y="951"/>
      <point x="498" y="956" type="curve" smooth="yes"/>
      <point x="408" y="954"/>
      <point x="324" y="936"/>
      <point x="252" y="918" type="curve" smooth="yes"/>
      <point x="240" y="915"/>
      <point x="236" y="907"/>
      <point x="234" y="895" type="curve" smooth="yes"/>
      <point x="223" y="813"/>
      <point x="223" y="727"/>
      <point x="234" y="641" type="curve" smooth="yes"/>
      <point x="236" y="627"/>
      <point x="242" y="618"/>
      <point x="258" y="623" type="curve" smooth="yes"/>
      <point x="342" y="647"/>
      <point x="404" y="653"/>
      <point x="432" y="653" type="curve" smooth="yes"/>
      <point x="674" y="657"/>
      <point x="686" y="446"/>
      <point x="721" y="307" type="curve"/>
      <point x="80" y="307" type="line"/>
      <point x="80" y="100" type="line" smooth="yes"/>
      <point x="80" y="35"/>
      <point x="115" y="0"/>
      <point x="180" y="0" type="curve" smooth="yes"/>
    </contour>
  </outline>
</glyph>
<glyph name="ain-ar" format="2">
  <advance width="1362"/>
  <unicode hex="0639"/>
  <anchor x="354" y="-746" name="bottom"/>
  <anchor x="549" y="1235" name="top"/>
  <outline>
    <contour>
      <point x="1257" y="307" type="line"/>
      <point x="899" y="307" type="line" smooth="yes"/>
      <point x="625" y="307"/>
      <point x="549" y="477"/>
      <point x="549" y="565" type="curve" smooth="yes"/>
      <point x="549" y="733"/>
      <point x="793" y="766"/>
      <point x="958" y="643" type="curve" smooth="yes"/>
      <point x="969" y="635"/>
      <point x="977" y="641"/>
      <point x="987" y="647" type="curve" smooth="yes"/>
      <point x="1075" y="702"/>
      <point x="1133" y="772"/>
      <point x="1159" y="852" type="curve" smooth="yes"/>
      <point x="1163" y="862"/>
      <point x="1165" y="872"/>
      <point x="1155" y="881" type="curve" smooth="yes"/>
      <point x="805" y="1153"/>
      <point x="242" y="1026"/>
      <point x="242" y="565" type="curve" smooth="yes"/>
      <point x="242" y="489"/>
      <point x="264" y="397"/>
      <point x="354" y="264" type="curve"/>
      <point x="190" y="195"/>
      <point x="82" y="43"/>
      <point x="82" y="-145" type="curve" smooth="yes"/>
      <point x="82" y="-432"/>
      <point x="279" y="-618"/>
      <point x="604" y="-618" type="curve" smooth="yes"/>
      <point x="1001" y="-618" type="line" smooth="yes"/>
      <point x="1012" y="-618"/>
      <point x="1020" y="-612"/>
      <point x="1026" y="-602" type="curve" smooth="yes"/>
      <point x="1075" y="-514"/>
      <point x="1104" y="-426"/>
      <point x="1108" y="-334" type="curve" smooth="yes"/>
      <point x="1108" y="-319"/>
      <point x="1106" y="-311"/>
      <point x="1092" y="-311" type="curve" smooth="yes"/>
      <point x="629" y="-311" type="line" smooth="yes"/>
      <point x="479" y="-311"/>
      <point x="389" y="-254"/>
      <point x="389" y="-147" type="curve" smooth="yes"/>
      <point x="389" y="-57"/>
      <point x="461" y="0"/>
      <point x="567" y="0" type="curve" smooth="yes"/>
      <point x="1135" y="0" type="line" smooth="yes"/>
      <point x="1268" y="0"/>
      <point x="1257" y="72"/>
      <point x="1257" y="205" type="curve" smooth="yes"/>
    </contour>
  </outline>
</glyph>
<glyph name="kaf-ar" format="2">
  <advance width="1583"/>
  <unicode hex="0643"/>
  <anchor x="521" y="-156" name="bottom"/>
  <anchor x="541" y="1341" name="top"/>
  <outline>
    <component base="lam-ar.init" xOffset="1108" identifier="626A7EA4"/>
    <contour>
      <point x="729" y="623" type="curve" smooth="yes"/>
      <point x="982" y="623" type="line" smooth="yes"/>
      <point x="1008" y="623"/>
      <point x="1022" y="637"/>
      <point x="1022" y="663" type="curve" smooth="yes"/>
      <point x="1022" y="894"/>
      <point x="965" y="997"/>
      <point x="826" y="997" type="curve"/>
      <point x="888" y="1035" type="line" smooth="yes"/>
      <point x="960" y="1079"/>
      <point x="959" y="1168"/>
      <point x="931" y="1226" type="curve"/>
      <point x="618" y="1012" type="line"/>
      <point x="628" y="913" type="line" smooth="yes"/>
      <point x="633" y="865"/>
      <point x="655" y="839"/>
      <point x="703" y="839" type="curve" smooth="yes"/>
      <point x="810" y="839" type="line" smooth="yes"/>
      <point x="846" y="839"/>
      <point x="855" y="820"/>
      <point x="855" y="801" type="curve" smooth="yes"/>
      <point x="855" y="795"/>
      <point x="852" y="792"/>
      <point x="846" y="792" type="curve" smooth="yes"/>
      <point x="582" y="792" type="line"/>
      <point x="577" y="678"/>
      <point x="618" y="623"/>
    </contour>
    <component base="_kafbowl" xOffset="80" identifier="7512F6F7"/>
  </outline>
</glyph>
<glyph name="lam-ar" format="2">
  <advance width="1319"/>
  <unicode hex="0644"/>
  <anchor x="325" y="-588" name="bottom"/>
  <anchor x="430" y="1113" name="top"/>
  <outline>
    <contour>
      <point x="666" y="-161" type="curve" smooth="yes"/>
      <point x="506" y="-161"/>
      <point x="346" y="-44"/>
      <point x="340" y="275" type="curve" smooth="yes"/>
      <point x="340" y="288"/>
      <point x="332" y="298"/>
      <point x="319" y="296" type="curve"/>
      <point x="240" y="275"/>
      <point x="164" y="241"/>
      <point x="100" y="196" type="curve" smooth="yes"/>
      <point x="90" y="189"/>
      <point x="82" y="185"/>
      <point x="82" y="173" type="curve" smooth="yes"/>
      <point x="82" y="-319"/>
      <point x="430" y="-468"/>
      <point x="666" y="-468" type="curve" smooth="yes"/>
      <point x="943" y="-468"/>
      <point x="1223" y="-280"/>
      <point x="1237" y="94" type="curve" smooth="yes"/>
      <point x="1237" y="1497" type="line" smooth="yes"/>
      <point x="1237" y="1513"/>
      <point x="1225" y="1520"/>
      <point x="1210" y="1516" type="curve" smooth="yes"/>
      <point x="1118" y="1487"/>
      <point x="1030" y="1450"/>
      <point x="946" y="1405" type="curve" smooth="yes"/>
      <point x="934" y="1399"/>
      <point x="930" y="1391"/>
      <point x="930" y="1378" type="curve" smooth="yes"/>
      <point x="930" y="95" type="line" smooth="yes"/>
      <point x="919" y="-123"/>
      <point x="774" y="-161"/>
    </contour>
  </outline>
</glyph>
<glyph name="waw-ar" format="2">
  <advance width="1026"/>
  <unicode hex="0648"/>
  <anchor x="285" y="-444" name="bottom"/>
  <anchor x="466" y="1136" name="top"/>
  <outline>
    <component base="_roundhead" xOffset="70" identifier="472C3667"/>
    <contour>
      <point x="944" y="52" type="curve"/>
      <point x="637" y="52" type="line"/>
      <point x="637" y="-56"/>
      <point x="602" y="-164"/>
      <point x="514" y="-227" type="curve" smooth="yes"/>
      <point x="502" y="-236"/>
      <point x="506" y="-246"/>
      <point x="510" y="-256" type="curve" smooth="yes"/>
      <point x="545" y="-330"/>
      <point x="600" y="-389"/>
      <point x="672" y="-434" type="curve" smooth="yes"/>
      <point x="680" y="-440"/>
      <point x="690" y="-444"/>
      <point x="701" y="-438" type="curve" smooth="yes"/>
      <point x="834" y="-350"/>
      <point x="944" y="-189"/>
    </contour>
  </outline>
</glyph>
<glyph name="fatha-ar" format="2">
  <advance width="0"/>
  <unicode hex="064E"/>
  <anchor x="0" y="0" name="_top"/>
  <anchor x="4" y="208" name="top"/>
  <outline>
    <contour>
      <point x="-240" y="42" type="line"/>
      <point x="-251" y="-66" type="line"/>
      <point x="249" y="160" type="line"/>
      <point x="258" y="267" type="line"/>
    </contour>
  </outline>
</glyph>
<glyph name="zero-ar" format="2">
  <advance width="770"/>
  <unicode hex="0660"/>
  <outline>
    <contour>
      <point x="215" y="802" type="curve" smooth="yes"/>
      <point x="215" y="628" type="line" smooth="yes"/>
      <point x="215" y="532"/>
      <point x="266" y="478"/>
      <point x="358" y="478" type="curve" smooth="yes"/>
      <point x="409" y="478" type="line" smooth="yes"/>
      <point x="504" y="478"/>
      <point x="555" y="532"/>
      <point x="555" y="628" type="curve" smooth="yes"/>
      <point x="555" y="802" type="line" smooth="yes"/>
      <point x="555" y="900"/>
      <point x="504" y="953"/>
      <point x="409" y="953" type="curve" smooth="yes"/>
      <point x="358" y="953" type="line" smooth="yes"/>
      <point x="266" y="953"/>
      <point x="215" y="900"/>
    </contour>
  </outline>
</glyph>
<glyph name="two-ar" format="2">
  <advance width="946"/>
  <unicode hex="0662"/>
  <outline>
    <contour>
      <point x="75" y="1192" type="curve" smooth="yes"/>
      <point x="477" y="0" type="line"/>
      <point x="533" y="17" type="line" smooth="yes"/>
      <point x="654" y="54"/>
      <point x="744" y="159"/>
      <point x="690" y="317" type="curve" smooth="yes"/>
      <point x="381" y="1214" type="line"/>
      <point x="672" y="1214" type="line" smooth="yes"/>
      <point x="797" y="1214"/>
      <point x="866" y="1315"/>
      <point x="866" y="1440" type="curve" smooth="yes"/>
      <point x="866" y="1524" type="line"/>
      <point x="315" y="1526" type="line" smooth="yes"/>
      <point x="100" y="1527"/>
      <point x="7" y="1395"/>
    </contour>
  </outline>
</glyph>
<glyph name="four-ar" format="2">
  <advance width="926"/>
  <unicode hex="0664"/>
  <outline>
    <contour>
      <point x="775" y="-63" type="line"/>
      <point x="795" y="-30" type="line" smooth="yes"/>
      <point x="886" y="119"/>
      <point x="855" y="248"/>
      <point x="707" y="339" type="curve" smooth="yes"/>
      <point x="499" y="467" type="line"/>
      <point x="691" y="657" type="line" smooth="yes"/>
      <point x="784" y="749"/>
      <point x="783" y="849"/>
      <point x="689" y="940" type="curve" smooth="yes"/>
      <point x="494" y="1129" type="line"/>
      <point x="619" y="1196" type="line" smooth="yes"/>
      <point x="706" y="1243"/>
      <point x="731" y="1327"/>
      <point x="694" y="1428" type="curve" smooth="yes"/>
      <point x="658" y="1527" type="line"/>
      <point x="188" y="1314" type="line" smooth="yes"/>
      <point x="60" y="1256"/>
      <point x="44" y="1136"/>
      <point x="149" y="1035" type="curve" smooth="yes"/>
      <point x="396" y="797" type="line"/>
      <point x="167" y="571" type="line" smooth="yes"/>
      <point x="66" y="471"/>
      <point x="79" y="366"/>
      <point x="200" y="291" type="curve" smooth="yes"/>
    </contour>
  </outline>
</glyph>
<glyph name="six-ar" format="2">
  <advance width="985"/>
  <unicode hex="0666"/>
  <outline>
    <contour>
      <point x="82" y="1526" type="line"/>
      <point x="87" y="1460" type="line" smooth="yes"/>
      <point x="98" y="1317"/>
      <point x="192" y="1226"/>
      <point x="313" y="1226" type="curve" smooth="yes"/>
      <point x="565" y="1226" type="line"/>
      <point x="643" y="0" type="line"/>
      <point x="714" y="10" type="line" smooth="yes"/>
      <point x="846" y="29"/>
      <point x="933" y="153"/>
      <point x="924" y="317" type="curve" smooth="yes"/>
      <point x="852" y="1526" type="line"/>
    </contour>
  </outline>
</glyph>
<glyph name="seven-ar" format="2">
  <advance width="1213"/>
  <unicode hex="0667"/>
  <outline>
    <contour>
      <point x="514" y="0" type="line"/>
      <point x="767" y="0" type="line"/>
      <point x="1092" y="1232" type="line" smooth="yes"/>
      <point x="1127" y="1365"/>
      <point x="1024" y="1503"/>
      <point x="902" y="1519" type="curve" smooth="yes"/>
      <point x="849" y="1526" type="line"/>
      <point x="608" y="564" type="line"/>
      <point x="266" y="1526" type="line"/>
      <point x="229" y="1515" type="line" smooth="yes"/>
      <point x="105" y="1478"/>
      <point x="23" y="1326"/>
      <point x="63" y="1217" type="curve" smooth="yes"/>
    </contour>
  </outline>
</glyph>
<glyph name="nine-ar" format="2">
  <advance width="1037"/>
  <unicode hex="0669"/>
  <outline>
    <contour>
      <point x="706" y="0" type="line"/>
      <point x="773" y="18" type="line" smooth="yes"/>
      <point x="911" y="55"/>
      <point x="986" y="150"/>
      <point x="976" y="317" type="curve" smooth="yes"/>
      <point x="901" y="1526" type="line"/>
      <point x="445" y="1526" type="line" smooth="yes"/>
      <point x="-138" y="1526"/>
      <point x="-47" y="707"/>
      <point x="364" y="698" type="curve" smooth="yes"/>
      <point x="735" y="690" type="line"/>
      <point x="735" y="1003" type="line"/>
      <point x="413" y="1003" type="line" smooth="yes"/>
      <point x="271" y="1003"/>
      <point x="251" y="1232"/>
      <point x="426" y="1232" type="curve" smooth="yes"/>
      <point x="628" y="1232" type="line"/>
    </contour>
  </outline>
</glyph>
<glyph name="yehbarree-ar" format="2">
  <advance width="1787"/>
  <unicode hex="06D2"/>
  <outline>
    <contour>
      <point x="453.788" y="-0.5" type="curve" smooth="yes"/>
      <point x="1465" y="0" type="line" smooth="yes"/>
      <point x="1487" y="0"/>
      <point x="1519" y="9"/>
      <point x="1537" y="25" type="curve" smooth="yes"/>
      <point x="1627" y="102"/>
      <point x="1688" y="178"/>
      <point x="1720" y="255" type="curve" smooth="yes"/>
      <point x="1732" y="284"/>
      <point x="1730" y="307"/>
      <point x="1695" y="307" type="curve" smooth="yes"/>
      <point x="477" y="307" type="line" smooth="yes"/>
      <point x="404" y="307"/>
      <point x="387" y="355"/>
      <point x="387" y="406" type="curve" smooth="yes"/>
      <point x="387" y="514"/>
      <point x="541" y="683"/>
      <point x="644" y="682" type="curve" smooth="yes"/>
      <point x="715" y="682"/>
      <point x="754" y="619"/>
      <point x="809" y="446" type="curve" smooth="yes"/>
      <point x="819" y="415"/>
      <point x="840" y="413"/>
      <point x="866" y="423" type="curve" smooth="yes"/>
      <point x="935" y="449"/>
      <point x="997" y="492"/>
      <point x="1052" y="550" type="curve" smooth="yes"/>
      <point x="1070" y="568"/>
      <point x="1080" y="581"/>
      <point x="1072" y="606" type="curve" smooth="yes"/>
      <point x="979" y="891"/>
      <point x="864" y="990"/>
      <point x="646" y="990" type="curve" smooth="yes"/>
      <point x="322" y="990"/>
      <point x="74.5" y="627.374"/>
      <point x="74.5" y="355" type="curve"/>
      <point x="74.5" y="143.526"/>
      <point x="242" y="-1"/>
    </contour>
  </outline>
</glyph>
<glyph name="fullstop-ar" format="2">
  <advance width="947"/>
  <unicode hex="06D4"/>
  <outline>
    <contour>
      <point x="671" y="-6" type="line"/>
      <point x="767" y="-6"/>
      <point x="847" y="70"/>
      <point x="847" y="166" type="curve" smooth="yes"/>
      <point x="847" y="262"/>
      <point x="767" y="342"/>
      <point x="671" y="342" type="curve" smooth="yes"/>
      <point x="272" y="342" type="line"/>
      <point x="176" y="342"/>
      <point x="100" y="262"/>
      <point x="100" y="166" type="curve" smooth="yes"/>
      <point x="100" y="70"/>
      <point x="176" y="-6"/>
      <point x="272" y="-6" type="curve" smooth="yes"/>
    </contour>
  </outline>
</glyph>
<glyph name="fourFarsi-ar" format="2">
  <advance width="1217"/>
  <unicode hex="06F4"/>
  <outline>
    <contour>
      <point x="561" y="0" type="line"/>
      <point x="616" y="22" type="line" smooth="yes"/>
      <point x="754" y="77"/>
      <point x="817" y="201"/>
      <point x="766" y="352" type="curve" smooth="yes"/>
      <point x="601" y="848" type="line"/>
      <point x="1061" y="846" type="line" smooth="yes"/>
      <point x="1076" y="846"/>
      <point x="1087" y="858"/>
      <point x="1091" y="882" type="curve" smooth="yes"/>
      <point x="1103" y="944"/>
      <point x="1101" y="1009"/>
      <point x="1091" y="1072" type="curve" smooth="yes"/>
      <point x="1088" y="1094"/>
      <point x="1076" y="1106"/>
      <point x="1056" y="1106" type="curve" smooth="yes"/>
      <point x="900" y="1106" type="line" smooth="yes"/>
      <point x="825" y="1106"/>
      <point x="791" y="1131"/>
      <point x="791" y="1191" type="curve" smooth="yes"/>
      <point x="791" y="1245"/>
      <point x="830" y="1269"/>
      <point x="896" y="1271" type="curve" smooth="yes"/>
      <point x="1015" y="1274" type="line" smooth="yes"/>
      <point x="1038" y="1275"/>
      <point x="1045" y="1284"/>
      <point x="1045" y="1313" type="curve" smooth="yes"/>
      <point x="1045" y="1382"/>
      <point x="1019" y="1448"/>
      <point x="989" y="1505" type="curve" smooth="yes"/>
      <point x="982" y="1518"/>
      <point x="970" y="1526"/>
      <point x="950" y="1526" type="curve" smooth="yes"/>
      <point x="853" y="1526" type="line" smooth="yes"/>
      <point x="666" y="1526"/>
      <point x="543" y="1376"/>
      <point x="552" y="1195" type="curve" smooth="yes"/>
      <point x="553" y="1176"/>
      <point x="554" y="1156"/>
      <point x="555" y="1137" type="curve" smooth="yes"/>
      <point x="556" y="1126"/>
      <point x="558" y="1110"/>
      <point x="540" y="1110" type="curve" smooth="yes"/>
      <point x="529" y="1110" type="line" smooth="yes"/>
      <point x="519" y="1110"/>
      <point x="511" y="1119"/>
      <point x="507" y="1131" type="curve" smooth="yes"/>
      <point x="385" y="1497" type="line" smooth="yes"/>
      <point x="381" y="1509"/>
      <point x="377" y="1513"/>
      <point x="367" y="1516" type="curve" smooth="yes"/>
      <point x="279" y="1538"/>
      <point x="160" y="1538"/>
      <point x="71" y="1518" type="curve" smooth="yes"/>
      <point x="58" y="1515"/>
      <point x="53" y="1505"/>
      <point x="57" y="1491" type="curve" smooth="yes"/>
    </contour>
  </outline>
</glyph>
<glyph name="endash" format="2">
  <advance width="1292"/>
  <unicode hex="2013"/>
  <outline>
    <contour>
      <point x="123" y="643" type="line"/>
      <point x="123" y="426" type="line"/>
      <point x="1169" y="426" type="line"/>
      <point x="1169" y="643" type="line"/>
    </contour>
  </outline>
</glyph>
<glyph name="guilsinglleft" format="2">
  <advance width="750"/>
  <unicode hex="2039"/>
  <outline>
    <contour>
      <point x="430" y="1040" type="line"/>
      <point x="123" y="592" type="line"/>
      <point x="430" y="127" type="line"/>
      <point x="627" y="127" type="line"/>
      <point x="319" y="592" type="line"/>
      <point x="627" y="1040" type="line"/>
    </contour>
  </outline>
</glyph>
<glyph name="euro" format="2">
  <advance width="1110"/>
  <unicode hex="20AC"/>
  <note>
uni20AC
</note>
  <outline>
    <contour>
      <point x="831" y="565" type="line"/>
      <point x="557" y="565" type="line"/>
      <point x="557" y="674" type="line"/>
      <point x="831" y="674" type="line"/>
      <point x="831" y="813" type="line"/>
      <point x="561" y="813" type="line"/>
      <point x="575" y="967"/>
      <point x="659" y="1038"/>
      <point x="821" y="1038" type="curve" smooth="yes"/>
      <point x="874" y="1038"/>
      <point x="924" y="1030"/>
      <point x="969" y="1012" type="curve"/>
      <point x="1008" y="1249" type="line"/>
      <point x="932" y="1268"/>
      <point x="864" y="1276"/>
      <point x="803" y="1276" type="curve" smooth="yes"/>
      <point x="481" y="1276"/>
      <point x="272" y="1104"/>
      <point x="250" y="813" type="curve"/>
      <point x="102" y="813" type="line"/>
      <point x="102" y="674" type="line"/>
      <point x="248" y="674" type="line"/>
      <point x="248" y="565" type="line"/>
      <point x="102" y="565" type="line"/>
      <point x="102" y="426" type="line"/>
      <point x="248" y="426" type="line"/>
      <point x="258" y="135"/>
      <point x="459" y="-39"/>
      <point x="776" y="-39" type="curve" smooth="yes"/>
      <point x="852" y="-39"/>
      <point x="928" y="-31"/>
      <point x="1008" y="-12" type="curve"/>
      <point x="969" y="225" type="line"/>
      <point x="924" y="207"/>
      <point x="872" y="199"/>
      <point x="813" y="199" type="curve" smooth="yes"/>
      <point x="635" y="199"/>
      <point x="563" y="270"/>
      <point x="557" y="426" type="curve"/>
      <point x="831" y="426" type="line"/>
    </contour>
  </outline>
</glyph>
<glyph name="lozenge" format="2">
  <advance width="1047"/>
  <unicode hex="25CA"/>
  <note>
uni25CA
</note>
  <outline>
    <contour>
      <point x="82" y="641" type="line"/>
      <point x="391" y="0" type="line"/>
      <point x="655" y="0" type="line"/>
      <point x="965" y="641" type="line"/>
      <point x="655" y="1282" type="line"/>
      <point x="391" y="1282" type="line"/>
    </contour>
    <contour>
      <point x="670" y="641" type="line"/>
      <point x="522" y="301" type="line"/>
      <point x="375" y="641" type="line"/>
      <point x="524" y="981" type="line"/>
    </contour>
  </outline>
</glyph>
<glyph name="parenleft-ar" format="2">
  <advance width="690"/>
  <unicode hex="FD3E"/>
  <outline>
    <contour>
      <point x="608" y="1864" type="curve"/>
      <point x="356" y="1864" type="line"/>
      <point x="176" y="1522"/>
      <point x="82" y="1182"/>
      <point x="82" y="809" type="curve" smooth="yes"/>
      <point x="82" y="479"/>
      <point x="176" y="121"/>
      <point x="356" y="-240" type="curve"/>
      <point x="608" y="-240" type="line"/>
      <point x="461" y="121"/>
      <point x="389" y="479"/>
      <point x="389" y="809" type="curve" smooth="yes"/>
      <point x="389" y="1182"/>
      <point x="461" y="1522"/>
    </contour>
  </outline>
</glyph>
<glyph name="_kafbowl" format="2">
  <advance width="1003"/>
  <outline>
    <contour>
      <point x="1003" y="306" type="line"/>
      <point x="578" y="306" type="line"/>
      <point x="205" y="306"/>
      <point x="280" y="568"/>
      <point x="382" y="677" type="curve"/>
      <point x="158" y="887" type="line"/>
      <point x="-93" y="618"/>
      <point x="-108" y="-1"/>
      <point x="578" y="-1" type="curve"/>
      <point x="1003" y="-1" type="line"/>
    </contour>
  </outline>
</glyph>
<glyph name="_roundot" format="2">
  <advance width="600"/>
  <outline>
    <contour>
      <point x="3" y="-503" type="curve" smooth="yes"/>
      <point x="106" y="-503"/>
      <point x="189" y="-420"/>
      <point x="189" y="-317" type="curve" smooth="yes"/>
      <point x="189" y="-213"/>
      <point x="106" y="-130"/>
      <point x="3" y="-130" type="curve" smooth="yes"/>
      <point x="-101" y="-130"/>
      <point x="-184" y="-213"/>
      <point x="-184" y="-317" type="curve" smooth="yes"/>
      <point x="-184" y="-420"/>
      <point x="-101" y="-503"/>
    </contour>
  </outline>
</glyph>
<glyph name="_sadkufihead" format="2">
  <advance width="1110"/>
  <outline>
    <contour>
      <point x="854" y="0" type="line" smooth="yes"/>
      <point x="1020" y="0"/>
      <point x="1110" y="90"/>
      <point x="1110" y="256" type="curve" smooth="yes"/>
      <point x="1110" y="838"/>
      <point x="997" y="922"/>
      <point x="489" y="922" type="curve" smooth="yes"/>
      <point x="435" y="922" type="line" smooth="yes"/>
      <point x="44" y="922"/>
      <point x="0" y="729"/>
      <point x="0" y="677" type="curve" smooth="yes"/>
      <point x="0" y="608" type="line"/>
      <point x="604" y="608" type="line" smooth="yes"/>
      <point x="772" y="608"/>
      <point x="809" y="569"/>
      <point x="809" y="379" type="curve" smooth="yes"/>
      <point x="809" y="315"/>
      <point x="793" y="307"/>
      <point x="758" y="307" type="curve" smooth="yes"/>
      <point x="0" y="307" type="line"/>
      <point x="0" y="0" type="line"/>
    </contour>
  </outline>
</glyph>
<glyph name="_tahsmall" format="2">
  <advance width="0"/>
  <anchor x="0" y="0" name="_top"/>
  <outline>
    <contour>
      <point x="214" y="37" type="line" smooth="yes"/>
      <point x="281" y="37"/>
      <point x="314" y="73"/>
      <point x="314" y="141" type="curve" smooth="yes"/>
      <point x="314" y="278"/>
      <point x="248" y="397"/>
      <point x="94" y="397" type="curve" smooth="yes"/>
      <point x="16" y="397"/>
      <point x="-55" y="330"/>
      <point x="-116" y="258" type="curve"/>
      <point x="-77" y="141" type="line"/>
      <point x="-24" y="207"/>
      <point x="35" y="273"/>
      <point x="87" y="273" type="curve" smooth="yes"/>
      <point x="159" y="274"/>
      <point x="169" y="214"/>
      <point x="171" y="171" type="curve" smooth="yes"/>
      <point x="171" y="165"/>
      <point x="168" y="164"/>
      <point x="164" y="164" type="curve" smooth="yes"/>
      <point x="-127" y="159" type="line"/>
      <point x="-127" y="37" type="line"/>
    </contour>
    <contour>
      <point x="-72" y="37" type="line"/>
      <point x="-72" y="565" type="line" smooth="yes"/>
      <point x="-72" y="571"/>
      <point x="-76" y="573"/>
      <point x="-81" y="572" type="curve" smooth="yes"/>
      <point x="-116" y="566"/>
      <point x="-162" y="552"/>
      <point x="-197" y="527" type="curve" smooth="yes"/>
      <point x="-201" y="524"/>
      <point x="-203" y="522"/>
      <point x="-203" y="518" type="curve" smooth="yes"/>
      <point x="-203" y="164" type="line"/>
      <point x="-273" y="164" type="line"/>
      <point x="-273" y="118" type="line" smooth="yes"/>
      <point x="-273" y="65"/>
      <point x="-244" y="37"/>
      <point x="-192" y="37" type="curve" smooth="yes"/>
    </contour>
  </outline>
</glyph>
<glyph name="_wasla" format="2">
  <advance width="0"/>
  <outline>
    <contour>
      <point x="329" y="162" type="curve" smooth="yes"/>
      <point x="306" y="303"/>
      <point x="206" y="425"/>
      <point x="98" y="425" type="curve" smooth="yes"/>
      <point x="8" y="425"/>
      <point x="-37" y="325"/>
      <point x="-78" y="197" type="curve"/>
      <point x="-129" y="196"/>
      <point x="-179" y="197"/>
      <point x="-231" y="200" type="curve"/>
      <point x="-270" y="-85" type="line"/>
      <point x="-188" y="-99" type="line"/>
      <point x="-120" y="40" type="line"/>
      <point x="-4" y="30"/>
      <point x="125" y="35"/>
      <point x="245" y="58" type="curve" smooth="yes"/>
      <point x="302" y="69"/>
      <point x="338" y="104"/>
    </contour>
    <contour>
      <point x="11" y="200" type="curve"/>
      <point x="37" y="248"/>
      <point x="57" y="288"/>
      <point x="108" y="288" type="curve" smooth="yes"/>
      <point x="135" y="288"/>
      <point x="175" y="268"/>
      <point x="203" y="240" type="curve" smooth="yes"/>
      <point x="211" y="232"/>
      <point x="208" y="223"/>
      <point x="196" y="221" type="curve" smooth="yes"/>
      <point x="130" y="209"/>
      <point x="83" y="204"/>
    </contour>
  </outline>
</glyph>
<glyph name="alefMaksura-ar.fina" format="2">
  <advance width="1727"/>
  <anchor x="501" y="-149" name="bottom"/>
  <anchor x="522" y="1070" name="top"/>
  <outline>
    <contour>
      <point x="1227" y="164" type="curve" smooth="yes"/>
      <point x="1227" y="561" type="line" smooth="yes"/>
      <point x="1227" y="580"/>
      <point x="1239" y="592"/>
      <point x="1258" y="592" type="curve" smooth="yes"/>
      <point x="1308" y="592" type="line" smooth="yes"/>
      <point x="1326" y="592"/>
      <point x="1338" y="580"/>
      <point x="1338" y="561" type="curve" smooth="yes"/>
      <point x="1338" y="164" type="line" smooth="yes"/>
      <point x="1338" y="57"/>
      <point x="1396" y="0"/>
      <point x="1502" y="0" type="curve" smooth="yes"/>
      <point x="1645" y="0" type="line"/>
      <point x="1645" y="672" type="line" smooth="yes"/>
      <point x="1645" y="831"/>
      <point x="1559" y="918"/>
      <point x="1399" y="918" type="curve" smooth="yes"/>
      <point x="1165" y="918" type="line" smooth="yes"/>
      <point x="1006" y="918"/>
      <point x="920" y="831"/>
      <point x="920" y="672" type="curve" smooth="yes"/>
      <point x="920" y="307" type="line"/>
      <point x="660" y="307" type="line" smooth="yes"/>
      <point x="335" y="307"/>
      <point x="351" y="661"/>
      <point x="463" y="905" type="curve" smooth="yes"/>
      <point x="471" y="922"/>
      <point x="463" y="928"/>
      <point x="444" y="924" type="curve" smooth="yes"/>
      <point x="346" y="905"/>
      <point x="254" y="866"/>
      <point x="164" y="811" type="curve" smooth="yes"/>
      <point x="156" y="807"/>
      <point x="150" y="803"/>
      <point x="143" y="793" type="curve" smooth="yes"/>
      <point x="1" y="553"/>
      <point x="76" y="0"/>
      <point x="660" y="0" type="curve" smooth="yes"/>
      <point x="1063" y="0" type="line" smooth="yes"/>
      <point x="1169" y="0"/>
      <point x="1227" y="57"/>
    </contour>
    <contour>
      <point x="1520" y="307" type="line"/>
      <point x="1520" y="0" type="line"/>
      <point x="1767" y="0" type="line"/>
      <point x="1767" y="307" type="line"/>
    </contour>
  </outline>
</glyph>
<glyph name="alefMaksura-ar.ss01" format="2">
  <advance width="1378"/>
  <anchor x="310" y="-218" name="bottom"/>
  <anchor x="395" y="1048" name="top"/>
  <outline>
    <contour>
      <point x="676" y="-121" type="curve"/>
      <point x="1064" y="-121"/>
      <point x="1298" y="11"/>
      <point x="1298" y="264" type="curve" smooth="yes"/>
      <point x="1298" y="495"/>
      <point x="1274" y="673"/>
      <point x="928" y="747" type="curve"/>
      <point x="931" y="770" type="line" smooth="yes"/>
      <point x="941" y="847"/>
      <point x="1076" y="864"/>
      <point x="1241" y="866" type="curve" smooth="yes"/>
      <point x="1253" y="866"/>
      <point x="1260" y="874"/>
      <point x="1262" y="886" type="curve" smooth="yes"/>
      <point x="1278" y="970"/>
      <point x="1261" y="1059"/>
      <point x="1223" y="1143" type="curve" smooth="yes"/>
      <point x="1218" y="1155"/>
      <point x="1199" y="1173"/>
      <point x="1161" y="1173" type="curve" smooth="yes"/>
      <point x="890" y="1173"/>
      <point x="619" y="1073"/>
      <point x="619" y="780" type="curve" smooth="yes"/>
      <point x="619" y="524" type="line" smooth="yes"/>
      <point x="619" y="491"/>
      <point x="637" y="473"/>
      <point x="674" y="473" type="curve" smooth="yes"/>
      <point x="909" y="471"/>
      <point x="985" y="463"/>
      <point x="985" y="312" type="curve" smooth="yes"/>
      <point x="985" y="184"/>
      <point x="793" y="176"/>
      <point x="685" y="176" type="curve" smooth="yes"/>
      <point x="330" y="176"/>
      <point x="321" y="601"/>
      <point x="530" y="784" type="curve" smooth="yes"/>
      <point x="549" y="799"/>
      <point x="529" y="811"/>
      <point x="510" y="810" type="curve" smooth="yes"/>
      <point x="407" y="804"/>
      <point x="254" y="745"/>
      <point x="164" y="690" type="curve" smooth="yes"/>
      <point x="156" y="686"/>
      <point x="150" y="682"/>
      <point x="143" y="672" type="curve" smooth="yes"/>
      <point x="-6" y="421"/>
      <point x="93" y="-121"/>
    </contour>
  </outline>
</glyph>
<glyph name="behDotless-ar.init" format="2">
  <advance width="666"/>
  <outline>
    <contour>
      <point x="256" y="0" type="line"/>
      <point x="487" y="0"/>
      <point x="604" y="113"/>
      <point x="604" y="336" type="curve" smooth="yes"/>
      <point x="604" y="926" type="line" smooth="yes"/>
      <point x="604" y="940"/>
      <point x="594" y="946"/>
      <point x="580" y="942" type="curve" smooth="yes"/>
      <point x="489" y="915"/>
      <point x="399" y="879"/>
      <point x="313" y="827" type="curve" smooth="yes"/>
      <point x="303" y="821"/>
      <point x="297" y="815"/>
      <point x="297" y="805" type="curve" smooth="yes"/>
      <point x="297" y="354" type="line" smooth="yes"/>
      <point x="297" y="315"/>
      <point x="283" y="307"/>
      <point x="240" y="307" type="curve" smooth="yes"/>
      <point x="-191" y="307" type="line"/>
      <point x="-191" y="0" type="line"/>
    </contour>
  </outline>
</glyph>
<glyph name="dal-ar.fina.ss01" format="2">
  <advance width="1107"/>
  <anchor x="404" y="-159" name="bottom"/>
  <anchor x="486" y="1166" name="top"/>
  <outline>
    <contour>
      <point x="915" y="307" type="line"/>
      <point x="915" y="0" type="line"/>
      <point x="1147" y="0" type="line"/>
      <point x="1147" y="307" type="line"/>
    </contour>
    <component base="dal-ar.ss01"/>
  </outline>
</glyph>
<glyph name="hah-ar.init" format="2">
  <advance width="1024"/>
  <anchor x="344" y="-180" name="bottom"/>
  <anchor x="394" y="1138" name="top"/>
  <outline>
    <contour>
      <point x="942" y="0" type="line"/>
      <point x="926" y="344"/>
      <point x="844" y="950"/>
      <point x="377" y="956" type="curve" smooth="yes"/>
      <point x="287" y="954"/>
      <point x="203" y="936"/>
      <point x="131" y="918" type="curve" smooth="yes"/>
      <point x="119" y="915"/>
      <point x="115" y="907"/>
      <point x="113" y="895" type="curve" smooth="yes"/>
      <point x="102" y="813"/>
      <point x="102" y="727"/>
      <point x="113" y="641" type="curve" smooth="yes"/>
      <point x="115" y="627"/>
      <point x="121" y="618"/>
      <point x="137" y="623" type="curve" smooth="yes"/>
      <point x="221" y="647"/>
      <point x="283" y="653"/>
      <point x="311" y="653" type="curve" smooth="yes"/>
      <point x="553" y="657"/>
      <point x="565" y="446"/>
      <point x="600" y="307" type="curve"/>
      <point x="-41" y="307" type="line"/>
      <point x="-41" y="0" type="line"/>
    </contour>
  </outline>
</glyph>
<glyph name="heh-ar.fina.ss02" format="2">
  <advance width="1049"/>
  <anchor x="311" y="-176" name="bottom"/>
  <anchor x="500" y="1138" name="top"/>
  <outline>
    <contour>
      <point x="520" y="307" type="line"/>
      <point x="520" y="0" type="line"/>
      <point x="1090" y="0" type="line"/>
      <point x="1090" y="307" type="line"/>
    </contour>
    <component base="heh-ar.ss02"/>
  </outline>
</glyph>
<glyph name="heh-ar.ss02" format="2">
  <advance width="1036"/>
  <anchor x="394" y="-167" name="bottom"/>
  <anchor x="513" y="1240" name="top"/>
  <outline>
    <component base="_roundhead" xOffset="79" identifier="4ACBFAB3"/>
    <contour>
      <point x="952" y="508" type="line"/>
      <point x="952" y="1089" type="line" smooth="yes"/>
      <point x="952" y="1103"/>
      <point x="942" y="1109"/>
      <point x="928" y="1105" type="curve" smooth="yes"/>
      <point x="837" y="1078"/>
      <point x="747" y="1042"/>
      <point x="661" y="990" type="curve" smooth="yes"/>
      <point x="651" y="984"/>
      <point x="645" y="978"/>
      <point x="645" y="968" type="curve" smooth="yes"/>
      <point x="645" y="508" type="line"/>
    </contour>
  </outline>
</glyph>
<glyph name="kaf-ar.fina" format="2">
  <advance width="1583"/>
  <anchor x="499" y="-147" name="bottom"/>
  <anchor x="515" y="1307" name="top"/>
  <outline>
    <contour>
      <point x="1198" y="105" type="line"/>
      <point x="1505" y="105" type="line"/>
      <point x="1505" y="1495" type="line" smooth="yes"/>
      <point x="1505" y="1509"/>
      <point x="1495" y="1513"/>
      <point x="1481" y="1511" type="curve" smooth="yes"/>
      <point x="1393" y="1493"/>
      <point x="1303" y="1456"/>
      <point x="1214" y="1397" type="curve" smooth="yes"/>
      <point x="1204" y="1391"/>
      <point x="1198" y="1384"/>
      <point x="1198" y="1374" type="curve" smooth="yes"/>
    </contour>
    <contour>
      <point x="729" y="623" type="curve" smooth="yes"/>
      <point x="982" y="623" type="line" smooth="yes"/>
      <point x="1008" y="623"/>
      <point x="1022" y="637"/>
      <point x="1022" y="663" type="curve" smooth="yes"/>
      <point x="1022" y="894"/>
      <point x="965" y="997"/>
      <point x="826" y="997" type="curve"/>
      <point x="888" y="1035" type="line" smooth="yes"/>
      <point x="960" y="1079"/>
      <point x="959" y="1168"/>
      <point x="931" y="1226" type="curve"/>
      <point x="618" y="1012" type="line"/>
      <point x="628" y="913" type="line" smooth="yes"/>
      <point x="633" y="865"/>
      <point x="655" y="839"/>
      <point x="703" y="839" type="curve" smooth="yes"/>
      <point x="810" y="839" type="line" smooth="yes"/>
      <point x="846" y="839"/>
      <point x="855" y="820"/>
      <point x="855" y="801" type="curve" smooth="yes"/>
      <point x="855" y="795"/>
      <point x="852" y="792"/>
      <point x="846" y="792" type="curve" smooth="yes"/>
      <point x="582" y="792" type="line"/>
      <point x="577" y="678"/>
      <point x="618" y="623"/>
    </contour>
    <component base="_kafbowl" xOffset="80" identifier="AE981586"/>
    <contour>
      <point x="1018" y="307" type="line"/>
      <point x="1018" y="0" type="line"/>
      <point x="1624" y="0" type="line"/>
      <point x="1624" y="307" type="line"/>
    </contour>
  </outline>
</glyph>
<glyph name="lam-ar.init" format="2">
  <advance width="479"/>
  <anchor x="228" y="-135" name="bottom"/>
  <anchor x="235" y="1571" name="top"/>
  <outline>
    <contour>
      <point x="49" y="0" type="line"/>
      <point x="281" y="0"/>
      <point x="397" y="113"/>
      <point x="397" y="336" type="curve" smooth="yes"/>
      <point x="397" y="1495" type="line" smooth="yes"/>
      <point x="397" y="1509"/>
      <point x="387" y="1513"/>
      <point x="373" y="1511" type="curve" smooth="yes"/>
      <point x="285" y="1493"/>
      <point x="195" y="1456"/>
      <point x="106" y="1397" type="curve" smooth="yes"/>
      <point x="96" y="1391"/>
      <point x="90" y="1384"/>
      <point x="90" y="1374" type="curve" smooth="yes"/>
      <point x="90" y="354" type="line" smooth="yes"/>
      <point x="90" y="315"/>
      <point x="76" y="307"/>
      <point x="33" y="307" type="curve" smooth="yes"/>
      <point x="-49" y="307" type="line"/>
      <point x="-49" y="0" type="line"/>
    </contour>
  </outline>
</glyph>
<glyph name="lamVabove_alef-ar.fina" format="2">
  <advance width="950"/>
  <outline>
    <component base="lamVabove_alef-ar"/>
    <contour>
      <point x="462" y="307" type="line"/>
      <point x="462" y="0" type="line"/>
      <point x="1008" y="0" type="line"/>
      <point x="1008" y="307" type="line"/>
    </contour>
  </outline>
</glyph>
<glyph name="lam_alef-ar.fina" format="2">
  <advance width="975"/>
  <anchor x="334" y="-118" name="bottom"/>
  <anchor x="772" y="1551" name="top_1"/>
  <anchor x="51" y="1325" name="top_2"/>
  <outline>
    <component base="lam_alef-ar"/>
    <contour>
      <point x="819" y="307" type="line"/>
      <point x="819" y="0" type="line"/>
      <point x="1016" y="0" type="line"/>
      <point x="1016" y="307" type="line"/>
    </contour>
  </outline>
</glyph>
<glyph name="lam_alefHamzaabove-ar.fina" format="2">
  <advance width="975"/>
  <anchor x="314" y="-131" name="bottom"/>
  <anchor x="818" y="1625" name="top_1"/>
  <anchor x="4" y="1785" name="top_2"/>
  <outline>
    <component base="lam_alefHamzaabove-ar"/>
    <contour>
      <point x="831" y="307" type="line"/>
      <point x="831" y="0" type="line"/>
      <point x="1016" y="0" type="line"/>
      <point x="1016" y="307" type="line"/>
    </contour>
  </outline>
</glyph>
<glyph name="lam_alefHamzabelow-ar.fina" format="2">
  <advance width="975"/>
  <anchor x="323" y="-701" name="bottom"/>
  <anchor x="772" y="1551" name="top_1"/>
  <anchor x="51" y="1325" name="top_2"/>
  <outline>
    <contour>
      <point x="831" y="307" type="line"/>
      <point x="831" y="0" type="line"/>
      <point x="1016" y="0" type="line"/>
      <point x="1016" y="307" type="line"/>
    </contour>
    <component base="_smallhamza" xOffset="242" yOffset="-420" identifier="B4206998"/>
    <component base="lam_alef-ar"/>
  </outline>
</glyph>
<glyph name="qafDotless-ar.fina" format="2">
  <advance width="1495"/>
  <outline>
    <contour>
      <point x="1368" y="307" type="line"/>
      <point x="1368" y="0" type="line"/>
      <point x="1536" y="0" type="line"/>
      <point x="1536" y="307" type="line"/>
    </contour>
    <component base="qafDotless-ar"/>
  </outline>
</glyph>
<glyph name="sad-ar.init" format="2">
  <advance width="1546"/>
  <anchor x="679" y="-180" name="bottom"/>
  <anchor x="688" y="1252" name="top"/>
  <outline>
    <component base="_sadkufihead" xOffset="363" identifier="396BF2FE"/>
    <contour>
      <point x="414" y="0" type="line"/>
      <point x="414" y="986" type="line" smooth="yes"/>
      <point x="414" y="1000"/>
      <point x="403" y="1004"/>
      <point x="389" y="1002" type="curve" smooth="yes"/>
      <point x="301" y="988"/>
      <point x="211" y="951"/>
      <point x="123" y="887" type="curve" smooth="yes"/>
      <point x="113" y="881"/>
      <point x="106" y="875"/>
      <point x="106" y="865" type="curve" smooth="yes"/>
      <point x="106" y="307" type="line"/>
      <point x="-41" y="307" type="line"/>
      <point x="-41" y="0" type="line"/>
    </contour>
  </outline>
</glyph>
<glyph name="sad-ar.medi.ss01" format="2">
  <advance width="1539"/>
  <anchor x="646" y="-185" name="bottom"/>
  <anchor x="658" y="1142" name="top"/>
  <outline>
    <contour>
      <point x="1094" y="307" type="line"/>
      <point x="1094" y="0" type="line"/>
      <point x="1578" y="0" type="line"/>
      <point x="1578" y="307" type="line"/>
    </contour>
    <component base="sad-ar.init.ss01"/>
  </outline>
</glyph>
<glyph name="tah-ar.medi" format="2">
  <advance width="1501"/>
  <anchor x="590" y="-129" name="bottom"/>
  <anchor x="875" y="1372" name="top"/>
  <outline>
    <component base="tah-ar.fina" xOffset="-161" identifier="6DB54555"/>
    <contour>
      <point x="-83" y="307" type="line"/>
      <point x="-83" y="0" type="line"/>
      <point x="240" y="0" type="line"/>
      <point x="240" y="307" type="line"/>
    </contour>
  </outline>
</glyph>
<glyph name="tah-ar.ss01" format="2">
  <advance width="1645"/>
  <anchor x="525" y="-129" name="bottom"/>
  <anchor x="1038" y="1155" name="top"/>
  <outline>
    <component base="_sadhead" xOffset="451" identifier="8E03C4B5"/>
    <contour>
      <point x="565" y="0" type="line"/>
      <point x="565" y="1499" type="line" smooth="yes"/>
      <point x="565" y="1513"/>
      <point x="555" y="1518"/>
      <point x="541" y="1516" type="curve" smooth="yes"/>
      <point x="453" y="1501"/>
      <point x="362" y="1464"/>
      <point x="274" y="1401" type="curve" smooth="yes"/>
      <point x="264" y="1395"/>
      <point x="258" y="1389"/>
      <point x="258" y="1378" type="curve" smooth="yes"/>
      <point x="258" y="307" type="line"/>
      <point x="82" y="307" type="line"/>
      <point x="82" y="205" type="line" smooth="yes"/>
      <point x="82" y="72"/>
      <point x="154" y="0"/>
      <point x="287" y="0" type="curve" smooth="yes"/>
    </contour>
  </outline>
</glyph>
